<svg xmlns="http://www.w3.org/2000/svg" xmlns:svg="http://www.w3.org/2000/svg" id="svg2" width="744.094" height="1052.362" version="1.1"><metadata id="metadata7"/><g id="layer1" style="display:inline"><rect style="fill:#dbd4cd;fill-opacity:1;stroke:#000;stroke-opacity:1" id="rect3079" width="405" height="295" x="19" y="22.362"/><path style="fill:#ffa614;fill-opacity:1;stroke:#000;stroke-opacity:1" id="path3949" d="m 65,247.36218 a 5,5 0 1 1 -10,0 5,5 0 1 1 10,0 z" transform="translate(4,4)"/><path id="path4238" d="m 65,247.36218 a 5,5 0 1 1 -10,0 5,5 0 1 1 10,0 z" transform="translate(32,5)" style="fill:#ffa614;fill-opacity:1;stroke:#000;stroke-opacity:1"/><path style="fill:#ffa614;fill-opacity:1;stroke:#000;stroke-opacity:1" id="path4240" d="m 65,247.36218 a 5,5 0 1 1 -10,0 5,5 0 1 1 10,0 z" transform="translate(66,5)"/><path id="path4242" d="m 65,247.36218 a 5,5 0 1 1 -10,0 5,5 0 1 1 10,0 z" transform="translate(100,5)" style="fill:#ffa614;fill-opacity:1;stroke:#000;stroke-opacity:1"/><path style="fill:#ffa614;fill-opacity:1;stroke:#000;stroke-opacity:1" id="path4244" d="m 65,247.36218 a 5,5 0 1 1 -10,0 5,5 0 1 1 10,0 z" transform="translate(126,5)"/><path id="path4246" d="m 65,247.36218 a 5,5 0 1 1 -10,0 5,5 0 1 1 10,0 z" transform="translate(162,5)" style="fill:#ffa614;fill-opacity:1;stroke:#000;stroke-opacity:1"/><path style="fill:#91ff14;fill-opacity:1;stroke:#000;stroke-opacity:1" id="path4248" d="m 65,247.36218 a 5,5 0 1 1 -10,0 5,5 0 1 1 10,0 z" transform="translate(208,5)"/><path id="path4250" d="m 65,247.36218 a 5,5 0 1 1 -10,0 5,5 0 1 1 10,0 z" transform="translate(256,5)" style="fill:#91ff14;fill-opacity:1;stroke:#000;stroke-opacity:1"/><rect style="fill:#000;stroke:#000;stroke-opacity:1;fill-opacity:1" id="rect4252" width="40" height="13.333" x="58" y="279.362"/><rect id="rect4254" width="40" height="13.333" x="104" y="279.362" style="fill:#000;stroke:#000;stroke-opacity:1;fill-opacity:1"/><rect style="fill:#000;stroke:#000;stroke-opacity:1;fill-opacity:1" id="rect4256" width="40" height="13.333" x="152" y="279.362"/><rect id="rect4258" width="40" height="13.333" x="200" y="279.362" style="fill:#000;stroke:#000;stroke-opacity:1;fill-opacity:1"/><rect style="fill:#000;stroke:#000;stroke-opacity:1;fill-opacity:1" id="rect4260" width="40" height="13.333" x="248" y="279.362"/><rect id="rect4262" width="40" height="13.333" x="296" y="279.362" style="fill:#fe0000;stroke:#000;stroke-opacity:1;fill-opacity:1"/><rect style="fill:none;stroke:#000;stroke-opacity:1" id="rect4266" width="240" height="90" x="80" y="42.362"/><path style="fill:none;stroke:#000;stroke-width:.99921262;stroke-miterlimit:4;stroke-opacity:1;stroke-dasharray:none" id="path4274" d="m 375,107.36218 c -0.96626,0.96626 -1.5802,-0.35768 -2.69956,0.42611 -1.11937,0.78378 -0.0852,1.81352 -1.32372,2.39102 -1.23846,0.5775 -1.36256,-0.87657 -2.68249,-0.5229 -1.31993,0.35368 -0.70037,1.675 -2.06166,1.79409 -1.36129,0.1191 -0.98059,-1.28973 -2.34188,-1.40883 -1.36129,-0.1191 -1.23101,1.33444 -2.55094,0.98077 -1.31993,-0.35368 -0.48034,-1.54734 -1.7188,-2.12484 -1.23847,-0.57751 -1.61318,0.83293 -2.73255,0.0491 -1.11936,-0.78379 0.0779,-1.6183 -0.8884,-2.58456 -0.96626,-0.96625 -1.80077,0.23096 -2.58456,-0.8884 -0.78379,-1.11937 0.62665,-1.49408 0.0491,-2.73254 -0.5775,-1.23847 -1.77116,-0.39887 -2.12483,-1.7188 -0.35368,-1.319934 1.09986,-1.189653 0.98076,-2.550946 -0.1191,-1.361293 -1.52793,-0.980587 -1.40883,-2.34188 0.1191,-1.361292 1.44042,-0.74173 1.79409,-2.06166 0.35368,-1.319931 -1.1004,-1.444033 -0.5229,-2.682496 0.57751,-1.238463 1.60724,-0.204347 2.39103,-1.323712 0.78378,-1.119365 -0.54016,-1.733307 0.4261,-2.699563 0.96626,-0.966257 1.5802,0.357684 2.69956,-0.426104 1.11937,-0.783788 0.0852,-1.813519 1.32372,-2.391024 1.23846,-0.577505 1.36256,0.876573 2.68249,0.522899 1.31993,-0.353675 0.70037,-1.674994 2.06166,-1.794092 1.36129,-0.119098 0.98059,1.289734 2.34188,1.408832 1.36129,0.119097 1.23101,-1.33444 2.55094,-0.980765 1.31993,0.353674 0.48034,1.547334 1.7188,2.124838 1.23847,0.577505 1.61318,-0.832932 2.73255,-0.04914 1.11936,0.783788 -0.0779,1.618303 0.8884,2.584559 0.96626,0.966257 1.80077,-0.23096 2.58456,0.888405 0.78379,1.119365 -0.62665,1.49408 -0.0491,2.732543 0.5775,1.238463 1.77116,0.398868 2.12483,1.718799 0.35368,1.31993 -1.09986,1.189649 -0.98076,2.550942 0.1191,1.361293 1.52793,0.980587 1.40883,2.34188 -0.1191,1.361293 -1.44042,0.74173 -1.79409,2.061659 -0.35368,1.31993 1.1004,1.44403 0.5229,2.6825 -0.57751,1.23846 -1.60724,0.20434 -2.39103,1.32371 -0.78378,1.11936 0.54016,1.73331 -0.4261,2.69956 z" transform="matrix(1.1676973,0,0,1.1676973,-61.209499,-16.327371)"/><path id="path4323" d="m 375,107.36218 c -0.96626,0.96626 -1.5802,-0.35768 -2.69956,0.42611 -1.11937,0.78378 -0.0852,1.81352 -1.32372,2.39102 -1.23846,0.5775 -1.36256,-0.87657 -2.68249,-0.5229 -1.31993,0.35368 -0.70037,1.675 -2.06166,1.79409 -1.36129,0.1191 -0.98059,-1.28973 -2.34188,-1.40883 -1.36129,-0.1191 -1.23101,1.33444 -2.55094,0.98077 -1.31993,-0.35368 -0.48034,-1.54734 -1.7188,-2.12484 -1.23847,-0.57751 -1.61318,0.83293 -2.73255,0.0491 -1.11936,-0.78379 0.0779,-1.6183 -0.8884,-2.58456 -0.96626,-0.96625 -1.80077,0.23096 -2.58456,-0.8884 -0.78379,-1.11937 0.62665,-1.49408 0.0491,-2.73254 -0.5775,-1.23847 -1.77116,-0.39887 -2.12483,-1.7188 -0.35368,-1.319934 1.09986,-1.189653 0.98076,-2.550946 -0.1191,-1.361293 -1.52793,-0.980587 -1.40883,-2.34188 0.1191,-1.361292 1.44042,-0.74173 1.79409,-2.06166 0.35368,-1.319931 -1.1004,-1.444033 -0.5229,-2.682496 0.57751,-1.238463 1.60724,-0.204347 2.39103,-1.323712 0.78378,-1.119365 -0.54016,-1.733307 0.4261,-2.699563 0.96626,-0.966257 1.5802,0.357684 2.69956,-0.426104 1.11937,-0.783788 0.0852,-1.813519 1.32372,-2.391024 1.23846,-0.577505 1.36256,0.876573 2.68249,0.522899 1.31993,-0.353675 0.70037,-1.674994 2.06166,-1.794092 1.36129,-0.119098 0.98059,1.289734 2.34188,1.408832 1.36129,0.119097 1.23101,-1.33444 2.55094,-0.980765 1.31993,0.353674 0.48034,1.547334 1.7188,2.124838 1.23847,0.577505 1.61318,-0.832932 2.73255,-0.04914 1.11936,0.783788 -0.0779,1.618303 0.8884,2.584559 0.96626,0.966257 1.80077,-0.23096 2.58456,0.888405 0.78379,1.119365 -0.62665,1.49408 -0.0491,2.732543 0.5775,1.238463 1.77116,0.398868 2.12483,1.718799 0.35368,1.31993 -1.09986,1.189649 -0.98076,2.550942 0.1191,1.361293 1.52793,0.980587 1.40883,2.34188 -0.1191,1.361293 -1.44042,0.74173 -1.79409,2.061659 -0.35368,1.31993 1.1004,1.44403 0.5229,2.6825 -0.57751,1.23846 -1.60724,0.20434 -2.39103,1.32371 -0.78378,1.11936 0.54016,1.73331 -0.4261,2.69956 z" transform="matrix(1.1676973,0,0,1.1676973,-364.09112,69.335704)" style="fill:none;stroke:#000;stroke-width:.99921262;stroke-miterlimit:4;stroke-opacity:1;stroke-dasharray:none"/><path style="fill:none;stroke:#000;stroke-width:.99921262;stroke-miterlimit:4;stroke-opacity:1;stroke-dasharray:none" id="path4339" d="m 375,107.36218 c -0.96626,0.96626 -1.5802,-0.35768 -2.69956,0.42611 -1.11937,0.78378 -0.0852,1.81352 -1.32372,2.39102 -1.23846,0.5775 -1.36256,-0.87657 -2.68249,-0.5229 -1.31993,0.35368 -0.70037,1.675 -2.06166,1.79409 -1.36129,0.1191 -0.98059,-1.28973 -2.34188,-1.40883 -1.36129,-0.1191 -1.23101,1.33444 -2.55094,0.98077 -1.31993,-0.35368 -0.48034,-1.54734 -1.7188,-2.12484 -1.23847,-0.57751 -1.61318,0.83293 -2.73255,0.0491 -1.11936,-0.78379 0.0779,-1.6183 -0.8884,-2.58456 -0.96626,-0.96625 -1.80077,0.23096 -2.58456,-0.8884 -0.78379,-1.11937 0.62665,-1.49408 0.0491,-2.73254 -0.5775,-1.23847 -1.77116,-0.39887 -2.12483,-1.7188 -0.35368,-1.319934 1.09986,-1.189653 0.98076,-2.550946 -0.1191,-1.361293 -1.52793,-0.980587 -1.40883,-2.34188 0.1191,-1.361292 1.44042,-0.74173 1.79409,-2.06166 0.35368,-1.319931 -1.1004,-1.444033 -0.5229,-2.682496 0.57751,-1.238463 1.60724,-0.204347 2.39103,-1.323712 0.78378,-1.119365 -0.54016,-1.733307 0.4261,-2.699563 0.96626,-0.966257 1.5802,0.357684 2.69956,-0.426104 1.11937,-0.783788 0.0852,-1.813519 1.32372,-2.391024 1.23846,-0.577505 1.36256,0.876573 2.68249,0.522899 1.31993,-0.353675 0.70037,-1.674994 2.06166,-1.794092 1.36129,-0.119098 0.98059,1.289734 2.34188,1.408832 1.36129,0.119097 1.23101,-1.33444 2.55094,-0.980765 1.31993,0.353674 0.48034,1.547334 1.7188,2.124838 1.23847,0.577505 1.61318,-0.832932 2.73255,-0.04914 1.11936,0.783788 -0.0779,1.618303 0.8884,2.584559 0.96626,0.966257 1.80077,-0.23096 2.58456,0.888405 0.78379,1.119365 -0.62665,1.49408 -0.0491,2.732543 0.5775,1.238463 1.77116,0.398868 2.12483,1.718799 0.35368,1.31993 -1.09986,1.189649 -0.98076,2.550942 0.1191,1.361293 1.52793,0.980587 1.40883,2.34188 -0.1191,1.361293 -1.44042,0.74173 -1.79409,2.061659 -0.35368,1.31993 1.1004,1.44403 0.5229,2.6825 -0.57751,1.23846 -1.60724,0.20434 -2.39103,1.32371 -0.78378,1.11936 0.54016,1.73331 -0.4261,2.69956 z" transform="matrix(1.1676973,0,0,1.1676973,-276.09112,69.335704)"/><path id="path4349" d="m 375,107.36218 c -0.96626,0.96626 -1.5802,-0.35768 -2.69956,0.42611 -1.11937,0.78378 -0.0852,1.81352 -1.32372,2.39102 -1.23846,0.5775 -1.36256,-0.87657 -2.68249,-0.5229 -1.31993,0.35368 -0.70037,1.675 -2.06166,1.79409 -1.36129,0.1191 -0.98059,-1.28973 -2.34188,-1.40883 -1.36129,-0.1191 -1.23101,1.33444 -2.55094,0.98077 -1.31993,-0.35368 -0.48034,-1.54734 -1.7188,-2.12484 -1.23847,-0.57751 -1.61318,0.83293 -2.73255,0.0491 -1.11936,-0.78379 0.0779,-1.6183 -0.8884,-2.58456 -0.96626,-0.96625 -1.80077,0.23096 -2.58456,-0.8884 -0.78379,-1.11937 0.62665,-1.49408 0.0491,-2.73254 -0.5775,-1.23847 -1.77116,-0.39887 -2.12483,-1.7188 -0.35368,-1.319934 1.09986,-1.189653 0.98076,-2.550946 -0.1191,-1.361293 -1.52793,-0.980587 -1.40883,-2.34188 0.1191,-1.361292 1.44042,-0.74173 1.79409,-2.06166 0.35368,-1.319931 -1.1004,-1.444033 -0.5229,-2.682496 0.57751,-1.238463 1.60724,-0.204347 2.39103,-1.323712 0.78378,-1.119365 -0.54016,-1.733307 0.4261,-2.699563 0.96626,-0.966257 1.5802,0.357684 2.69956,-0.426104 1.11937,-0.783788 0.0852,-1.813519 1.32372,-2.391024 1.23846,-0.577505 1.36256,0.876573 2.68249,0.522899 1.31993,-0.353675 0.70037,-1.674994 2.06166,-1.794092 1.36129,-0.119098 0.98059,1.289734 2.34188,1.408832 1.36129,0.119097 1.23101,-1.33444 2.55094,-0.980765 1.31993,0.353674 0.48034,1.547334 1.7188,2.124838 1.23847,0.577505 1.61318,-0.832932 2.73255,-0.04914 1.11936,0.783788 -0.0779,1.618303 0.8884,2.584559 0.96626,0.966257 1.80077,-0.23096 2.58456,0.888405 0.78379,1.119365 -0.62665,1.49408 -0.0491,2.732543 0.5775,1.238463 1.77116,0.398868 2.12483,1.718799 0.35368,1.31993 -1.09986,1.189649 -0.98076,2.550942 0.1191,1.361293 1.52793,0.980587 1.40883,2.34188 -0.1191,1.361293 -1.44042,0.74173 -1.79409,2.061659 -0.35368,1.31993 1.1004,1.44403 0.5229,2.6825 -0.57751,1.23846 -1.60724,0.20434 -2.39103,1.32371 -0.78378,1.11936 0.54016,1.73331 -0.4261,2.69956 z" transform="matrix(1.1676973,0,0,1.1676973,-186.09112,69.335704)" style="fill:none;stroke:#000;stroke-width:.99921262;stroke-miterlimit:4;stroke-opacity:1;stroke-dasharray:none"/><path style="fill:none;stroke:#000;stroke-width:.99921262;stroke-miterlimit:4;stroke-opacity:1;stroke-dasharray:none" id="path4359" d="m 375,107.36218 c -0.96626,0.96626 -1.5802,-0.35768 -2.69956,0.42611 -1.11937,0.78378 -0.0852,1.81352 -1.32372,2.39102 -1.23846,0.5775 -1.36256,-0.87657 -2.68249,-0.5229 -1.31993,0.35368 -0.70037,1.675 -2.06166,1.79409 -1.36129,0.1191 -0.98059,-1.28973 -2.34188,-1.40883 -1.36129,-0.1191 -1.23101,1.33444 -2.55094,0.98077 -1.31993,-0.35368 -0.48034,-1.54734 -1.7188,-2.12484 -1.23847,-0.57751 -1.61318,0.83293 -2.73255,0.0491 -1.11936,-0.78379 0.0779,-1.6183 -0.8884,-2.58456 -0.96626,-0.96625 -1.80077,0.23096 -2.58456,-0.8884 -0.78379,-1.11937 0.62665,-1.49408 0.0491,-2.73254 -0.5775,-1.23847 -1.77116,-0.39887 -2.12483,-1.7188 -0.35368,-1.319934 1.09986,-1.189653 0.98076,-2.550946 -0.1191,-1.361293 -1.52793,-0.980587 -1.40883,-2.34188 0.1191,-1.361292 1.44042,-0.74173 1.79409,-2.06166 0.35368,-1.319931 -1.1004,-1.444033 -0.5229,-2.682496 0.57751,-1.238463 1.60724,-0.204347 2.39103,-1.323712 0.78378,-1.119365 -0.54016,-1.733307 0.4261,-2.699563 0.96626,-0.966257 1.5802,0.357684 2.69956,-0.426104 1.11937,-0.783788 0.0852,-1.813519 1.32372,-2.391024 1.23846,-0.577505 1.36256,0.876573 2.68249,0.522899 1.31993,-0.353675 0.70037,-1.674994 2.06166,-1.794092 1.36129,-0.119098 0.98059,1.289734 2.34188,1.408832 1.36129,0.119097 1.23101,-1.33444 2.55094,-0.980765 1.31993,0.353674 0.48034,1.547334 1.7188,2.124838 1.23847,0.577505 1.61318,-0.832932 2.73255,-0.04914 1.11936,0.783788 -0.0779,1.618303 0.8884,2.584559 0.96626,0.966257 1.80077,-0.23096 2.58456,0.888405 0.78379,1.119365 -0.62665,1.49408 -0.0491,2.732543 0.5775,1.238463 1.77116,0.398868 2.12483,1.718799 0.35368,1.31993 -1.09986,1.189649 -0.98076,2.550942 0.1191,1.361293 1.52793,0.980587 1.40883,2.34188 -0.1191,1.361293 -1.44042,0.74173 -1.79409,2.061659 -0.35368,1.31993 1.1004,1.44403 0.5229,2.6825 -0.57751,1.23846 -1.60724,0.20434 -2.39103,1.32371 -0.78378,1.11936 0.54016,1.73331 -0.4261,2.69956 z" transform="matrix(1.1676973,0,0,1.1676973,-92.09112,69.335704)"/><rect style="fill:#000;fill-opacity:1;stroke:#000;stroke-opacity:1" id="rect4366" width="220" height="60" x="90" y="57.362"/><text style="font-size:21.18533897px;font-style:normal;font-weight:400;fill:red;fill-opacity:1;stroke:none;font-family:Bitstream Vera Sans" id="text4368" x="98" y="80.22" xml:space="preserve"><tspan id="tspan4372" x="98" y="80.22" style="font-size:21.18533897px;font-style:normal;font-variant:normal;font-weight:400;font-stretch:normal;text-align:start;line-height:108.00000429%;writing-mode:lr-tb;text-anchor:start;fill:red;fill-opacity:1;font-family:Andale Mono;-inkscape-font-specification:Andale Mono">Sha prm rng op.</tspan><tspan id="tspan4374" x="98" y="103.1" style="font-size:21.18533897px;font-style:normal;font-variant:normal;font-weight:400;font-stretch:normal;text-align:start;line-height:108.00000429%;writing-mode:lr-tb;text-anchor:start;fill:red;fill-opacity:1;font-family:Andale Mono;-inkscape-font-specification:Andale Mono"> zpu 0 12 sum</tspan></text><rect style="fill:#dbd4cd;fill-opacity:1;stroke:#000;stroke-width:.99921262;stroke-miterlimit:4;stroke-opacity:1;stroke-dasharray:none" id="rect4407" width="405" height="120" x="20" y="362.362"/><rect style="fill:#000;stroke:#000;stroke-width:1.15571415000000011;stroke-miterlimit:4;stroke-opacity:1;stroke-dasharray:none;fill-opacity:1" id="rect4409" width="29.843" height="40.344" x="30.078" y="432.94"/><path style="fill:#fdfdfd;stroke:#000;stroke-width:.99921262;stroke-miterlimit:4;stroke-opacity:1;stroke-dasharray:none;fill-opacity:1" id="path4411" d="m 55,452.36218 a 10,10 0 1 1 -20,0 10,10 0 1 1 20,0 z"/><path style="fill:#fff;stroke:#000;stroke-width:.99921262;stroke-miterlimit:4;stroke-opacity:1;stroke-dasharray:none;fill-opacity:1" id="path4416" d="m 47.5,452.36218 a 2.5,2.5 0 1 1 -5,0 2.5,2.5 0 1 1 5,0 z"/><path style="fill:#000;stroke:#000;stroke-width:.99921262;stroke-miterlimit:4;stroke-opacity:1;stroke-dasharray:none;fill-opacity:1" id="path4418" d="m 354.26905,467.94294 -29.53811,0 -14.76905,-25.58076 14.76906,-25.58075 29.53811,0 14.76905,25.58075 -14.76906,25.58076 z" transform="translate(20,0)"/><path style="fill:#fff;stroke:#000;stroke-width:.99921262;stroke-miterlimit:4;stroke-opacity:1;stroke-dasharray:none;fill-opacity:1" id="path4424" d="m 359.5,442.36218 a 19.5,19.5 0 1 1 -39,0 19.5,19.5 0 1 1 39,0 z" transform="translate(20,0)"/><path id="path4426" d="m 354.26905,467.94294 -29.53811,0 -14.76905,-25.58076 14.76906,-25.58075 29.53811,0 14.76905,25.58075 -14.76906,25.58076 z" transform="translate(-44,0)" style="fill:#000;stroke:#000;stroke-width:.99921262;stroke-miterlimit:4;stroke-opacity:1;stroke-dasharray:none;fill-opacity:1"/><path id="path4428" d="m 359.5,442.36218 a 19.5,19.5 0 1 1 -39,0 19.5,19.5 0 1 1 39,0 z" transform="translate(-44,0)" style="fill:#fff;stroke:#000;stroke-width:.99921262;stroke-miterlimit:4;stroke-opacity:1;stroke-dasharray:none;fill-opacity:1"/><rect style="fill:#a49280;stroke:#000;stroke-width:.99921262;stroke-miterlimit:4;stroke-opacity:1;stroke-dasharray:none;fill-opacity:1" id="rect4432" width="175" height="75" x="69" y="372.362"/><path style="fill:#e8e3df;stroke:#000;stroke-width:.99921262;stroke-miterlimit:4;stroke-opacity:1;stroke-dasharray:none;fill-opacity:1" id="path4434" d="m 135,407.36218 a 30,30 0 1 1 -60,0 30,30 0 1 1 60,0 z" transform="translate(8,2)"/><rect id="rect4438" width="3.036" height="12.143" x="111.982" y="385.291" style="fill:none;stroke:#000;stroke-width:.60665941;stroke-miterlimit:4;stroke-opacity:1;stroke-dasharray:none"/><rect style="fill:none;stroke:#000;stroke-width:.59999716;stroke-miterlimit:4;stroke-opacity:1;stroke-dasharray:none" id="rect4442" width="3.002" height="12.009" x="304.355" y="273.898" transform="matrix(0.8660254,0.5,-0.5,0.8660254,0,0)"/><rect id="rect4446" width="2.782" height="11.128" x="415.905" y="83.299" transform="matrix(0.5,0.8660254,-0.8660254,0.5,0,0)" style="fill:none;stroke:#000;stroke-width:.55594844;stroke-miterlimit:4;stroke-opacity:1;stroke-dasharray:none"/><rect style="fill:none;stroke:#000;stroke-width:.58493453;stroke-miterlimit:4;stroke-opacity:1;stroke-dasharray:none" id="rect4450" width="2.927" height="11.708" x="-110.715" y="387.703" transform="matrix(0.8660254,-0.5,0.5,0.8660254,0,0)"/><rect id="rect4454" width="2.906" height="11.625" x="-305.214" y="279.319" transform="matrix(0.5,-0.8660254,0.8660254,0.5,0,0)" style="fill:none;stroke:#000;stroke-width:.58077872;stroke-miterlimit:4;stroke-opacity:1;stroke-dasharray:none"/><path id="path4458" d="m 135,407.36218 a 30,30 0 1 1 -60,0 30,30 0 1 1 60,0 z" transform="translate(94,2)" style="fill:#e8e3df;stroke:#000;stroke-width:.99921262;stroke-miterlimit:4;stroke-opacity:1;stroke-dasharray:none;fill-opacity:1"/><rect style="fill:none;stroke:#000;stroke-width:.60665941;stroke-miterlimit:4;stroke-opacity:1;stroke-dasharray:none" id="rect4460" width="3.036" height="12.143" x="197.982" y="385.291"/><rect id="rect4462" width="3.002" height="12.009" x="378.833" y="230.898" transform="matrix(0.8660254,0.5,-0.5,0.8660254,0,0)" style="fill:none;stroke:#000;stroke-width:.59999716;stroke-miterlimit:4;stroke-opacity:1;stroke-dasharray:none"/><rect style="fill:none;stroke:#000;stroke-width:.55594844;stroke-miterlimit:4;stroke-opacity:1;stroke-dasharray:none" id="rect4464" width="2.782" height="11.128" x="458.905" y="8.821" transform="matrix(0.5,0.8660254,-0.8660254,0.5,0,0)"/><rect id="rect4466" width="2.927" height="11.708" x="-36.237" y="430.703" transform="matrix(0.8660254,-0.5,0.5,0.8660254,0,0)" style="fill:none;stroke:#000;stroke-width:.58493453;stroke-miterlimit:4;stroke-opacity:1;stroke-dasharray:none"/><rect style="fill:none;stroke:#000;stroke-width:.58077872;stroke-miterlimit:4;stroke-opacity:1;stroke-dasharray:none" id="rect4468" width="2.906" height="11.625" x="-262.214" y="353.797" transform="matrix(0.5,-0.8660254,0.8660254,0.5,0,0)"/><path style="fill:none;stroke:#000;stroke-width:1px;stroke-linecap:butt;stroke-linejoin:miter;stroke-opacity:1" id="path4476" d="m 295,467.36218 0,35"/><path style="fill:none;stroke:#000;stroke-width:1px;stroke-linecap:butt;stroke-linejoin:miter;stroke-opacity:1" id="path4478" d="m 360,467.36218 0,35"/><path style="fill:none;stroke:#000;stroke-width:1px;stroke-linecap:butt;stroke-linejoin:miter;stroke-opacity:1" id="path4480" d="m 200,439.36218 0,63"/><path style="fill:none;stroke:#000;stroke-width:1.00378036px;stroke-linecap:butt;stroke-linejoin:miter;stroke-opacity:1" id="path4482" d="m 110,437.116 0,65.49236"/><path style="fill:none;stroke:#000;stroke-width:1px;stroke-linecap:butt;stroke-linejoin:miter;stroke-opacity:1" id="path4484" d="m 45,472.36218 0,30"/><path style="fill:#000;fill-opacity:1;stroke:#000;stroke-width:.99921262;stroke-miterlimit:4;stroke-opacity:1;stroke-dasharray:none" id="path4486" d="m 55,512.36218 a 10,10 0 1 1 -20,0 10,10 0 1 1 20,0 z"/><path id="path4515" d="m 55,512.36218 a 10,10 0 1 1 -20,0 10,10 0 1 1 20,0 z" transform="translate(65,0)" style="fill:#000;fill-opacity:1;stroke:#000;stroke-width:.99921262;stroke-miterlimit:4;stroke-opacity:1;stroke-dasharray:none"/><path style="fill:#000;fill-opacity:1;stroke:#000;stroke-width:.99921262;stroke-miterlimit:4;stroke-opacity:1;stroke-dasharray:none" id="path4517" d="m 55,512.36218 a 10,10 0 1 1 -20,0 10,10 0 1 1 20,0 z" transform="translate(155,0)"/><path id="path4519" d="m 55,512.36218 a 10,10 0 1 1 -20,0 10,10 0 1 1 20,0 z" transform="translate(250,0)" style="fill:#000;fill-opacity:1;stroke:#000;stroke-width:.99921262;stroke-miterlimit:4;stroke-opacity:1;stroke-dasharray:none"/><path style="fill:#000;fill-opacity:1;stroke:#000;stroke-width:.99921262;stroke-miterlimit:4;stroke-opacity:1;stroke-dasharray:none" id="path4521" d="m 55,512.36218 a 10,10 0 1 1 -20,0 10,10 0 1 1 20,0 z" transform="translate(315,0)"/><path style="fill:none;stroke:#000;stroke-width:1px;stroke-linecap:butt;stroke-linejoin:miter;stroke-opacity:1" id="path4525" d="m 390,97.362183 55,0 0,0 0,0"/><path style="fill:none;stroke:#000;stroke-width:1px;stroke-linecap:butt;stroke-linejoin:miter;stroke-opacity:1" id="path4527" d="m 65,157.36218 0,-10 380,0"/><path style="fill:none;stroke:#000;stroke-width:1px;stroke-linecap:butt;stroke-linejoin:miter;stroke-opacity:1" id="path4529" d="m 150,157.36218 0,-10"/><path style="fill:none;stroke:#000;stroke-width:1px;stroke-linecap:butt;stroke-linejoin:miter;stroke-opacity:1" id="path4531" d="m 240,157.36218 0,-10"/><path style="fill:none;stroke:#000;stroke-width:1px;stroke-linecap:butt;stroke-linejoin:miter;stroke-opacity:1" id="path4535" d="m 335,147.36218 0,10"/><path style="fill:none;stroke:#000;stroke-width:1.00187528px;stroke-linecap:butt;stroke-linejoin:miter;stroke-opacity:1" id="path4537" d="m 63.500938,247.36124 0,-9.99812 381.498122,0"/><path style="fill:none;stroke:#000;stroke-width:1px;stroke-linecap:butt;stroke-linejoin:miter;stroke-opacity:1" id="path4539" d="m 92,247.36218 0,-10.5"/><path style="fill:none;stroke:#000;stroke-width:1px;stroke-linecap:butt;stroke-linejoin:miter;stroke-opacity:1" id="path4541" d="m 126,237.86218 0,9.5"/><path style="fill:none;stroke:#000;stroke-width:1px;stroke-linecap:butt;stroke-linejoin:miter;stroke-opacity:1" id="path4543" d="m 160,237.86218 0,8.5"/><path style="fill:none;stroke:#000;stroke-width:1px;stroke-linecap:butt;stroke-linejoin:miter;stroke-opacity:1" id="path4545" d="m 186,237.86218 0,9.5"/><path style="fill:none;stroke:#000;stroke-width:1px;stroke-linecap:butt;stroke-linejoin:miter;stroke-opacity:1" id="path4547" d="m 222,237.36218 0,9.5"/><path style="fill:none;stroke:#000;stroke-width:1px;stroke-linecap:butt;stroke-linejoin:miter;stroke-opacity:1" id="path4549" d="m 268.5,237.86218 0,9"/><path style="fill:none;stroke:#000;stroke-width:1px;stroke-linecap:butt;stroke-linejoin:miter;stroke-opacity:1" id="path4553" d="m 80,292.36218 0,10 365,0"/><path style="fill:none;stroke:#000;stroke-width:1px;stroke-linecap:butt;stroke-linejoin:miter;stroke-opacity:1" id="path4555" d="m 125,292.36218 0,10"/><path style="fill:#000;stroke:#000;stroke-width:1px;stroke-linecap:butt;stroke-linejoin:miter;stroke-opacity:1;fill-opacity:1" id="path4557" d="m 175,292.36218 0,10 0,0 0,0"/><path style="fill:#000;stroke:#000;stroke-width:1px;stroke-linecap:butt;stroke-linejoin:miter;stroke-opacity:1;fill-opacity:1" id="path4559" d="m 220,292.36218 0,10 0,0 0,0"/><path style="fill:none;stroke:#000;stroke-width:1px;stroke-linecap:butt;stroke-linejoin:miter;stroke-opacity:1" id="path4561" d="m 270,292.36218 0,10"/><path style="fill:#000;stroke:#000;stroke-width:1px;stroke-linecap:butt;stroke-linejoin:miter;stroke-opacity:1;fill-opacity:1" id="path4565" d="m 320,293.36218 0,9"/><path style="fill:none;stroke:#000;stroke-width:1px;stroke-linecap:butt;stroke-linejoin:miter;stroke-opacity:1" id="path4567" d="m 320,57.362183 125,0"/><path id="path4569" d="m 55,512.36218 a 10,10 0 1 1 -20,0 10,10 0 1 1 20,0 z" transform="translate(410,-365)" style="fill:#000;fill-opacity:1;stroke:#000;stroke-width:.99921262;stroke-miterlimit:4;stroke-opacity:1;stroke-dasharray:none"/><path style="fill:#000;fill-opacity:1;stroke:#000;stroke-width:.99921262;stroke-miterlimit:4;stroke-opacity:1;stroke-dasharray:none" id="path4571" d="m 55,512.36218 a 10,10 0 1 1 -20,0 10,10 0 1 1 20,0 z" transform="translate(410,-415)"/><path id="path4573" d="m 55,512.36218 a 10,10 0 1 1 -20,0 10,10 0 1 1 20,0 z" transform="translate(410,-275)" style="fill:#000;fill-opacity:1;stroke:#000;stroke-width:.99921262;stroke-miterlimit:4;stroke-opacity:1;stroke-dasharray:none"/><path style="fill:#000;fill-opacity:1;stroke:#000;stroke-width:.99921262;stroke-miterlimit:4;stroke-opacity:1;stroke-dasharray:none" id="path4575" d="m 55,512.36218 a 10,10 0 1 1 -20,0 10,10 0 1 1 20,0 z" transform="translate(410,-210)"/><path id="path4577" d="m 55,512.36218 a 10,10 0 1 1 -20,0 10,10 0 1 1 20,0 z" transform="translate(410,-455)" style="fill:#000;fill-opacity:1;stroke:#000;stroke-width:.99921262;stroke-miterlimit:4;stroke-opacity:1;stroke-dasharray:none"/><text style="font-size:16px;font-style:normal;font-variant:normal;font-weight:400;font-stretch:normal;text-align:start;line-height:125%;writing-mode:lr-tb;text-anchor:start;fill:#fff;fill-opacity:1;stroke:none;font-family:Bitstream Vera Sans;-inkscape-font-specification:Bitstream Vera Sans" id="text4579" x="449.645" y="63.362" xml:space="preserve"><tspan id="tspan4581" x="449.645" y="63.362" style="font-size:16px;font-style:normal;font-variant:normal;font-weight:400;font-stretch:normal;text-align:start;line-height:125%;writing-mode:lr-tb;text-anchor:start;fill:#fff;fill-opacity:1;font-family:Bitstream Vera Sans;-inkscape-font-specification:Bitstream Vera Sans">D</tspan></text><text id="text4611" x="449.645" y="103.362" xml:space="preserve" style="font-size:16px;font-style:normal;font-variant:normal;font-weight:400;font-stretch:normal;text-align:start;line-height:125%;writing-mode:lr-tb;text-anchor:start;fill:#fff;fill-opacity:1;stroke:none;font-family:Bitstream Vera Sans;-inkscape-font-specification:Bitstream Vera Sans"><tspan id="tspan4615" x="449.645" y="103.362">E</tspan></text><text style="font-size:16px;font-style:normal;font-variant:normal;font-weight:400;font-stretch:normal;text-align:start;line-height:125%;writing-mode:lr-tb;text-anchor:start;fill:#fff;fill-opacity:1;stroke:none;font-family:Bitstream Vera Sans;-inkscape-font-specification:Bitstream Vera Sans" id="text4617" x="449.645" y="153.362" xml:space="preserve"><tspan id="tspan4621" x="449.645" y="153.362">P</tspan></text><text id="text4623" x="449.645" y="243.362" xml:space="preserve" style="font-size:16px;font-style:normal;font-variant:normal;font-weight:400;font-stretch:normal;text-align:start;line-height:125%;writing-mode:lr-tb;text-anchor:start;fill:#fff;fill-opacity:1;stroke:none;font-family:Bitstream Vera Sans;-inkscape-font-specification:Bitstream Vera Sans"><tspan id="tspan4627" x="449.645" y="243.362">L</tspan></text><text style="font-size:16px;font-style:normal;font-variant:normal;font-weight:400;font-stretch:normal;text-align:start;line-height:125%;writing-mode:lr-tb;text-anchor:start;fill:#fff;fill-opacity:1;stroke:none;font-family:Bitstream Vera Sans;-inkscape-font-specification:Bitstream Vera Sans" id="text4629" x="449.645" y="307.362" xml:space="preserve"><tspan id="tspan4631" x="449.645" y="307.362">S</tspan></text><text id="text4637" x="39.645" y="517.362" xml:space="preserve" style="font-size:16px;font-style:normal;font-variant:normal;font-weight:400;font-stretch:normal;text-align:start;line-height:125%;writing-mode:lr-tb;text-anchor:start;fill:#fff;fill-opacity:1;stroke:none;font-family:Bitstream Vera Sans;-inkscape-font-specification:Bitstream Vera Sans"><tspan id="tspan4641" x="39.645" y="517.362">1</tspan></text><text style="font-size:16px;font-style:normal;font-variant:normal;font-weight:400;font-stretch:normal;text-align:start;line-height:125%;writing-mode:lr-tb;text-anchor:start;fill:#fff;fill-opacity:1;stroke:none;font-family:Bitstream Vera Sans;-inkscape-font-specification:Bitstream Vera Sans" id="text4645" x="105.645" y="517.362" xml:space="preserve"><tspan id="tspan4647" x="105.645" y="517.362">2</tspan></text><text id="text4651" x="195.645" y="517.362" xml:space="preserve" style="font-size:16px;font-style:normal;font-variant:normal;font-weight:400;font-stretch:normal;text-align:start;line-height:125%;writing-mode:lr-tb;text-anchor:start;fill:#fff;fill-opacity:1;stroke:none;font-family:Bitstream Vera Sans;-inkscape-font-specification:Bitstream Vera Sans"><tspan id="tspan4653" x="195.645" y="517.362">3</tspan></text><text style="font-size:16px;font-style:normal;font-variant:normal;font-weight:400;font-stretch:normal;text-align:start;line-height:125%;writing-mode:lr-tb;text-anchor:start;fill:#fff;fill-opacity:1;stroke:none;font-family:Bitstream Vera Sans;-inkscape-font-specification:Bitstream Vera Sans" id="text4657" x="289.645" y="517.362" xml:space="preserve"><tspan id="tspan4659" x="289.645" y="517.362">4</tspan></text><text id="text4663" x="355.645" y="517.362" xml:space="preserve" style="font-size:16px;font-style:normal;font-variant:normal;font-weight:400;font-stretch:normal;text-align:start;line-height:125%;writing-mode:lr-tb;text-anchor:start;fill:#fff;fill-opacity:1;stroke:none;font-family:Bitstream Vera Sans;-inkscape-font-specification:Bitstream Vera Sans"><tspan id="tspan4665" x="355.645" y="517.362">5</tspan></text><path style="fill:none;stroke:#000;stroke-opacity:1;display:inline" id="path4268" d="m 385,97.362183 a 20,20 0 1 1 -40,0 20,20 0 1 1 40,0 z" transform="matrix(1.25,0,0,1.25,-91.25,-24.340546)"/><path id="path4276" d="m 385,97.362183 a 20,20 0 1 1 -40,0 20,20 0 1 1 40,0 z" transform="matrix(0.61892376,0,0,0.61892376,139.09283,37.102414)" style="fill:#2b2b2b;stroke:#000;stroke-opacity:1;display:inline;fill-opacity:1"/><path id="path4319" d="m 385,97.362183 a 20,20 0 1 1 -40,0 20,20 0 1 1 40,0 z" transform="matrix(1.25,0,0,1.25,-394.13162,61.322529)" style="fill:none;stroke:#000;stroke-opacity:1;display:inline"/><path style="fill:none;stroke:#000;stroke-opacity:1;display:inline" id="path4321" d="m 385,97.362183 a 20,20 0 1 1 -40,0 20,20 0 1 1 40,0 z" transform="matrix(0.61892376,0,0,0.61892376,-163.7888,122.76548)"/><rect style="fill:#000;fill-opacity:1;stroke:#000;stroke-width:.84427875;stroke-miterlimit:4;stroke-opacity:1;stroke-dasharray:none;display:inline" id="rect4327" width="14.725" height="4.7" x="44.853" y="180.784"/><path style="fill:#000;fill-opacity:1;stroke:none;display:inline" id="path4329" d="m 386.71329,179.98456 a 4.1958041,4.1958041 0 1 1 -8.39161,0 4.1958041,4.1958041 0 1 1 8.39161,0 z" transform="translate(-320.56956,2.9751332)"/><path style="fill:none;stroke:#000;stroke-opacity:1;display:inline" id="path4331" d="m 385,97.362183 a 20,20 0 1 1 -40,0 20,20 0 1 1 40,0 z" transform="matrix(1.25,0,0,1.25,-306.13162,61.322529)"/><path id="path4333" d="m 385,97.362183 a 20,20 0 1 1 -40,0 20,20 0 1 1 40,0 z" transform="matrix(0.61892376,0,0,0.61892376,-75.7888,122.76548)" style="fill:none;stroke:#000;stroke-opacity:1;display:inline"/><rect id="rect4335" width="14.725" height="4.7" x="132.853" y="180.784" style="fill:#000;fill-opacity:1;stroke:#000;stroke-width:.84427875;stroke-miterlimit:4;stroke-opacity:1;stroke-dasharray:none;display:inline"/><path id="path4337" d="m 386.71329,179.98456 a 4.1958041,4.1958041 0 1 1 -8.39161,0 4.1958041,4.1958041 0 1 1 8.39161,0 z" transform="translate(-232.56956,2.9751332)" style="fill:#000;fill-opacity:1;stroke:none;display:inline"/><path id="path4341" d="m 385,97.362183 a 20,20 0 1 1 -40,0 20,20 0 1 1 40,0 z" transform="matrix(1.25,0,0,1.25,-216.13162,61.322529)" style="fill:none;stroke:#000;stroke-opacity:1;display:inline"/><path style="fill:none;stroke:#000;stroke-opacity:1;display:inline" id="path4343" d="m 385,97.362183 a 20,20 0 1 1 -40,0 20,20 0 1 1 40,0 z" transform="matrix(0.61892376,0,0,0.61892376,14.2112,122.76548)"/><rect style="fill:#000;fill-opacity:1;stroke:#000;stroke-width:.84427875;stroke-miterlimit:4;stroke-opacity:1;stroke-dasharray:none;display:inline" id="rect4345" width="14.725" height="4.7" x="222.853" y="180.784"/><path style="fill:#000;fill-opacity:1;stroke:none;display:inline" id="path4347" d="m 386.71329,179.98456 a 4.1958041,4.1958041 0 1 1 -8.39161,0 4.1958041,4.1958041 0 1 1 8.39161,0 z" transform="translate(-142.56956,2.9751332)"/><path style="fill:none;stroke:#000;stroke-opacity:1;display:inline" id="path4351" d="m 385,97.362183 a 20,20 0 1 1 -40,0 20,20 0 1 1 40,0 z" transform="matrix(1.25,0,0,1.25,-122.13162,61.322529)"/><path id="path4353" d="m 385,97.362183 a 20,20 0 1 1 -40,0 20,20 0 1 1 40,0 z" transform="matrix(0.61892376,0,0,0.61892376,108.2112,122.76548)" style="fill:none;stroke:#000;stroke-opacity:1;display:inline"/><rect id="rect4355" width="14.725" height="4.7" x="316.853" y="180.784" style="fill:#000;fill-opacity:1;stroke:#000;stroke-width:.84427875;stroke-miterlimit:4;stroke-opacity:1;stroke-dasharray:none;display:inline"/><path id="path4357" d="m 386.71329,179.98456 a 4.1958041,4.1958041 0 1 1 -8.39161,0 4.1958041,4.1958041 0 1 1 8.39161,0 z" transform="translate(-48.56956,2.9751332)" style="fill:#000;fill-opacity:1;stroke:none;display:inline"/><path style="fill:none;stroke:#000;stroke-width:1px;stroke-linecap:butt;stroke-linejoin:miter;stroke-opacity:1" id="path4847" d="m 315.77649,247.245 0,-10.03261"/></g></svg>