<svg xmlns="http://www.w3.org/2000/svg" xmlns:svg="http://www.w3.org/2000/svg" id="svg2" width="744.094" height="1052.362" version="1.1"><defs id="defs4"><marker id="Arrow1Mstart" orient="auto" refX="0" refY="0" style="overflow:visible"><path id="path3847" d="M 0.0,0.0 L 5.0,-5.0 L -12.5,0.0 L 5.0,5.0 L 0.0,0.0 z" transform="scale(0.4) translate(10,0)" style="fill-rule:evenodd;stroke:#000;stroke-width:1pt;marker-start:none"/></marker><marker id="Arrow1Send" orient="auto" refX="0" refY="0" style="overflow:visible"><path id="path3856" d="M 0.0,0.0 L 5.0,-5.0 L -12.5,0.0 L 5.0,5.0 L 0.0,0.0 z" transform="scale(0.2) rotate(180) translate(6,0)" style="fill-rule:evenodd;stroke:#000;stroke-width:1pt;marker-start:none"/></marker><marker id="Arrow2Send" orient="auto" refX="0" refY="0" style="overflow:visible"><path id="path3874" d="M 8.7185878,4.0337352 L -2.2072895,0.016013256 L 8.7185884,-4.0017078 C 6.9730900,-1.6296469 6.9831476,1.6157441 8.7185878,4.0337352 z" transform="scale(0.3) rotate(180) translate(-2.3,0)" style="font-size:12;fill-rule:evenodd;stroke-width:.625;stroke-linejoin:round"/></marker><marker id="Arrow2Lend" orient="auto" refX="0" refY="0" style="overflow:visible"><path id="path3862" d="M 8.7185878,4.0337352 L -2.2072895,0.016013256 L 8.7185884,-4.0017078 C 6.9730900,-1.6296469 6.9831476,1.6157441 8.7185878,4.0337352 z" transform="scale(1.1) rotate(180) translate(1,0)" style="font-size:12;fill-rule:evenodd;stroke-width:.625;stroke-linejoin:round"/></marker><marker id="Arrow1Mend" orient="auto" refX="0" refY="0" style="overflow:visible"><path id="path3850" d="M 0.0,0.0 L 5.0,-5.0 L -12.5,0.0 L 5.0,5.0 L 0.0,0.0 z" transform="scale(0.4) rotate(180) translate(10,0)" style="fill-rule:evenodd;stroke:#000;stroke-width:1pt;marker-start:none"/></marker><marker id="Arrow1Lend" orient="auto" refX="0" refY="0" style="overflow:visible"><path id="path3844" d="M 0.0,0.0 L 5.0,-5.0 L -12.5,0.0 L 5.0,5.0 L 0.0,0.0 z" transform="scale(0.8) rotate(180) translate(12.5,0)" style="fill-rule:evenodd;stroke:#000;stroke-width:1pt;marker-start:none"/></marker><marker id="Arrow1Lstart" orient="auto" refX="0" refY="0" style="overflow:visible"><path id="path3841" d="M 0.0,0.0 L 5.0,-5.0 L -12.5,0.0 L 5.0,5.0 L 0.0,0.0 z" transform="scale(0.8) translate(12.5,0)" style="fill-rule:evenodd;stroke:#000;stroke-width:1pt;marker-start:none"/></marker></defs><metadata id="metadata7"/><g id="layer1" style="display:inline"><rect style="fill:#dbd4cd;fill-opacity:1;stroke:#000;stroke-width:.5385443;stroke-opacity:1" id="rect3079" width="405.461" height="85.461" x="18.769" y="232.131"/><path style="fill:#ffa614;fill-opacity:1;stroke:#000;stroke-opacity:1" id="path3949" d="m 65,247.36218 a 5,5 0 1 1 -10,0 5,5 0 1 1 10,0 z" transform="translate(4,4)"/><path id="path4238" d="m 65,247.36218 a 5,5 0 1 1 -10,0 5,5 0 1 1 10,0 z" transform="translate(32,5)" style="fill:#dbd4cd;fill-opacity:1;stroke:#000;stroke-opacity:1"/><path style="fill:#dbd4cd;fill-opacity:1;stroke:#000;stroke-opacity:1" id="path4240" d="m 65,247.36218 a 5,5 0 1 1 -10,0 5,5 0 1 1 10,0 z" transform="translate(66,5)"/><path id="path4242" d="m 65,247.36218 a 5,5 0 1 1 -10,0 5,5 0 1 1 10,0 z" transform="translate(100,5)" style="fill:#dbd4cd;fill-opacity:1;stroke:#000;stroke-opacity:1"/><path style="fill:#dbd4cd;fill-opacity:1;stroke:#000;stroke-opacity:1" id="path4244" d="m 65,247.36218 a 5,5 0 1 1 -10,0 5,5 0 1 1 10,0 z" transform="translate(126,5)"/><path id="path4246" d="m 65,247.36218 a 5,5 0 1 1 -10,0 5,5 0 1 1 10,0 z" transform="translate(162,5)" style="fill:#dbd4cd;fill-opacity:1;stroke:#000;stroke-opacity:1"/><path style="fill:#91ff14;fill-opacity:1;stroke:#000;stroke-opacity:1" id="path4248" d="m 65,247.36218 a 5,5 0 1 1 -10,0 5,5 0 1 1 10,0 z" transform="translate(208,5)"/><path id="path4250" d="m 65,247.36218 a 5,5 0 1 1 -10,0 5,5 0 1 1 10,0 z" transform="translate(256,5)" style="fill:#dbd4cd;fill-opacity:1;stroke:#000;stroke-opacity:1"/><rect style="fill:#000;stroke:#000;stroke-opacity:1;fill-opacity:1" id="rect4252" width="40" height="13.333" x="58" y="279.362"/><rect id="rect4254" width="40" height="13.333" x="104" y="279.362" style="fill:#000;stroke:#000;stroke-opacity:1;fill-opacity:1"/><rect style="fill:#000;stroke:#000;stroke-opacity:1;fill-opacity:1" id="rect4256" width="40" height="13.333" x="152" y="279.362"/><rect id="rect4258" width="40" height="13.333" x="200" y="279.362" style="fill:#000;stroke:#000;stroke-opacity:1;fill-opacity:1"/><rect style="fill:#000;stroke:#000;stroke-opacity:1;fill-opacity:1" id="rect4260" width="40" height="13.333" x="248" y="279.362"/><rect id="rect4262" width="40" height="13.333" x="296" y="279.362" style="fill:#fe0000;stroke:#000;stroke-opacity:1;fill-opacity:1"/><text style="font-size:16px;font-style:normal;font-variant:normal;font-weight:400;font-stretch:normal;text-align:start;line-height:125%;writing-mode:lr-tb;text-anchor:start;fill:#fff;fill-opacity:1;stroke:none;font-family:Bitstream Vera Sans;-inkscape-font-specification:Bitstream Vera Sans" id="text4617" x="449.645" y="153.362" xml:space="preserve"><tspan id="tspan4621" x="449.645" y="153.362">P</tspan></text><text style="font-size:16px;font-style:normal;font-variant:normal;font-weight:400;font-stretch:normal;text-align:start;line-height:125%;writing-mode:lr-tb;text-anchor:start;fill:#fff;fill-opacity:1;stroke:none;font-family:Bitstream Vera Sans;-inkscape-font-specification:Bitstream Vera Sans" id="text4629" x="449.645" y="307.362" xml:space="preserve"><tspan id="tspan4631" x="449.645" y="307.362">S</tspan></text><text style="font-size:40px;font-style:normal;font-weight:400;fill:#000;fill-opacity:1;stroke:none;font-family:Bitstream Vera Sans" id="text3737" x="56" y="175.989" xml:space="preserve"><tspan id="tspan3739" x="56" y="175.989" style="font-size:14px">osc 1</tspan><tspan id="tspan3741" x="56" y="193.489" style="font-size:14px">osc 2</tspan><tspan id="tspan3743" x="56" y="210.989" style="font-size:14px">mixer</tspan></text><text id="text3745" x="104" y="193.612" xml:space="preserve" style="font-size:40px;font-style:normal;font-weight:400;fill:#000;fill-opacity:1;stroke:none;font-family:Bitstream Vera Sans"><tspan style="font-size:14px" id="tspan3751" x="104" y="193.612">filter</tspan></text><text style="font-size:40px;font-style:normal;font-weight:400;fill:#000;fill-opacity:1;stroke:none;font-family:Bitstream Vera Sans" id="text3758" x="152" y="167.147" xml:space="preserve"><tspan id="tspan3760" x="152" y="167.147" style="font-size:14px">env 1</tspan><tspan style="font-size:14px" id="tspan3762" x="152" y="184.647">env 2</tspan><tspan style="font-size:14px" id="tspan3764" x="152" y="202.147">lfo 1</tspan><tspan style="font-size:14px" id="tspan3766" x="152" y="219.647">lfo 2</tspan></text><text id="text3768" x="206" y="193.612" xml:space="preserve" style="font-size:40px;font-style:normal;font-weight:400;fill:#000;fill-opacity:1;stroke:none;font-family:Bitstream Vera Sans"><tspan id="tspan3776" x="206" y="193.612" style="font-size:14px">mod</tspan></text><text id="text3787" x="56" y="341.362" xml:space="preserve" style="font-size:40px;font-style:normal;font-weight:400;fill:#000;fill-opacity:1;stroke:none;font-family:Bitstream Vera Sans"><tspan style="font-size:12px" id="tspan3793" x="56" y="341.362">clock</tspan><tspan style="font-size:12px" id="tspan3800" x="56" y="356.362">arp</tspan></text><text style="font-size:40px;font-style:normal;font-weight:400;fill:#000;fill-opacity:1;stroke:none;font-family:Bitstream Vera Sans" id="text3802" x="104" y="349.841" xml:space="preserve"><tspan style="font-size:12px" id="tspan3810" x="104" y="349.841">edit</tspan></text><text id="text3812" x="154" y="342.42" xml:space="preserve" style="font-size:40px;font-style:normal;font-weight:400;fill:#000;fill-opacity:1;stroke:none;font-family:Bitstream Vera Sans"><tspan id="tspan3816" x="154" y="342.42" style="font-size:12px">step</tspan><tspan style="font-size:12px" id="tspan3820" x="154" y="357.42">gate</tspan></text><text style="font-size:40px;font-style:normal;font-weight:400;fill:#000;fill-opacity:1;stroke:none;font-family:Bitstream Vera Sans" id="text3824" x="200" y="332.757" xml:space="preserve"><tspan id="tspan3828" x="200" y="332.757" style="font-size:12px">tuning</tspan><tspan style="font-size:12px" id="tspan5442" x="200" y="347.757">MIDI</tspan><tspan style="font-size:12px" id="tspan5444" x="200" y="362.757">system</tspan></text><path style="fill:#fff;fill-opacity:1;stroke:#000;stroke-opacity:1" id="path3834" d="m 65,247.36218 a 5,5 0 1 1 -10,0 5,5 0 1 1 10,0 z" transform="translate(220,105)"/><path id="path3832" d="m 65,247.36218 a 5,5 0 1 1 -10,0 5,5 0 1 1 10,0 z" transform="translate(220,-50)" style="fill:#91ff14;fill-opacity:1;stroke:#000;stroke-opacity:1"/><path style="fill:none;stroke:#000;stroke-width:.99921262;stroke-linecap:butt;stroke-linejoin:miter;stroke-miterlimit:4;stroke-opacity:1;stroke-dasharray:none;marker-end:url(#Arrow1Mend)" id="path3836" d="m 280,227.36218 c 0,-30 -30,-30 -30,-30"/><path id="path5440" d="m 280,322.36218 c 0,30 -30,30 -30,30" style="fill:none;stroke:#000;stroke-width:.99921262;stroke-linecap:butt;stroke-linejoin:miter;stroke-miterlimit:4;stroke-opacity:1;stroke-dasharray:none;marker-end:url(#Arrow1Mend)"/><text style="font-size:40px;font-style:normal;font-weight:400;fill:#000;fill-opacity:1;stroke:none;font-family:Bitstream Vera Sans" id="text5460" x="300" y="193.612" xml:space="preserve"><tspan style="font-size:14px" id="tspan5462" x="300" y="193.612">load/save</tspan><tspan style="font-size:14px" id="tspan5464" x="300" y="211.112">patch</tspan></text><text id="text5466" x="300" y="341.612" xml:space="preserve" style="font-size:40px;font-style:normal;font-weight:400;fill:#000;fill-opacity:1;stroke:none;font-family:Bitstream Vera Sans"><tspan id="tspan5468" x="300" y="341.612" style="font-size:14px">load/save</tspan><tspan id="tspan5470" x="300" y="359.112" style="font-size:14px">sequence</tspan></text><path style="fill:none;stroke:#7e7e7e;stroke-width:.92480314;stroke-linecap:butt;stroke-linejoin:miter;stroke-miterlimit:4;stroke-opacity:1;stroke-dasharray:none;stroke-dashoffset:0;marker-start:url(#Arrow1Mstart);marker-end:url(#Arrow1Mstart)" id="path6064" d="m 36.929251,185.09658 c 0,0 0.08396,-27.37945 -16.367693,-27.37945 -17.5245787,0.25647 -16.430532,31.29581 -16.430532,31.29581 0,0 -0.08395,27.13075 16.367695,27.38722 17.166933,0 16.43053,-19.54285 16.43053,-19.54285"/><path id="path6848" d="m 37.249246,344.98473 c 0,0 0.07079,-19.37276 -13.800301,-19.37276 -14.775722,0.18146 -13.853284,22.14384 -13.853284,22.14384 0,0 -0.07078,19.1968 13.800303,19.37826 14.474175,0 13.853282,-13.82785 13.853282,-13.82785" style="fill:none;stroke:#7e7e7e;stroke-width:.92480314;stroke-linecap:butt;stroke-linejoin:miter;stroke-miterlimit:4;stroke-opacity:1;stroke-dasharray:none;stroke-dashoffset:0;marker-start:url(#Arrow1Mstart);marker-end:url(#Arrow1Mstart)"/><path id="path6854" d="m 65,247.36218 a 5,5 0 1 1 -10,0 5,5 0 1 1 10,0 z" transform="matrix(0.5,0,0,0.5,15.25,49.181091)" style="fill:#ffa614;fill-opacity:1;stroke:#000;stroke-opacity:1"/><path style="fill:#dbd4cd;fill-opacity:1;stroke:#000;stroke-opacity:1" id="path6856" d="m 65,247.36218 a 5,5 0 1 1 -10,0 5,5 0 1 1 10,0 z" transform="matrix(0.5,0,0,0.5,21.25,49.181091)"/><path style="fill:#dbd4cd;fill-opacity:1;stroke:#000;stroke-opacity:1" id="path6858" d="m 65,247.36218 a 5,5 0 1 1 -10,0 5,5 0 1 1 10,0 z" transform="matrix(0.5,0,0,0.5,15.25,65.931091)"/><path id="path6860" d="m 65,247.36218 a 5,5 0 1 1 -10,0 5,5 0 1 1 10,0 z" transform="matrix(0.5,0,0,0.5,21.25,65.931091)" style="fill:#ffa614;fill-opacity:1;stroke:#000;stroke-opacity:1"/><path id="path6862" d="m 65,247.36218 a 5,5 0 1 1 -10,0 5,5 0 1 1 10,0 z" transform="matrix(0.5,0,0,0.5,15.25,83.181091)" style="fill:#ffa614;fill-opacity:1;stroke:#000;stroke-opacity:1"/><path style="fill:#ffa614;fill-opacity:1;stroke:#000;stroke-opacity:1" id="path6864" d="m 65,247.36218 a 5,5 0 1 1 -10,0 5,5 0 1 1 10,0 z" transform="matrix(0.5,0,0,0.5,21.25,83.181091)"/><path style="fill:#ffa614;fill-opacity:1;stroke:#000;stroke-opacity:1" id="path6866" d="m 65,247.36218 a 5,5 0 1 1 -10,0 5,5 0 1 1 10,0 z" transform="matrix(0.5,0,0,0.5,71.25,65.181091)"/><path style="fill:#ffa614;fill-opacity:1;stroke:#000;stroke-opacity:1" id="path6868" d="m 65,247.36218 a 5,5 0 1 1 -10,0 5,5 0 1 1 10,0 z" transform="matrix(0.5,0,0,0.5,113.25,39.181091)"/><path id="path6870" d="m 65,247.36218 a 5,5 0 1 1 -10,0 5,5 0 1 1 10,0 z" transform="matrix(0.5,0,0,0.5,119.25,39.181091)" style="fill:#dbd4cd;fill-opacity:1;stroke:#000;stroke-opacity:1"/><path id="path6872" d="m 65,247.36218 a 5,5 0 1 1 -10,0 5,5 0 1 1 10,0 z" transform="matrix(0.5,0,0,0.5,113.25,57.181091)" style="fill:#dbd4cd;fill-opacity:1;stroke:#000;stroke-opacity:1"/><path style="fill:#ffa614;fill-opacity:1;stroke:#000;stroke-opacity:1" id="path6874" d="m 65,247.36218 a 5,5 0 1 1 -10,0 5,5 0 1 1 10,0 z" transform="matrix(0.5,0,0,0.5,119.25,57.181091)"/><path style="fill:#ffa614;fill-opacity:1;stroke:#000;stroke-opacity:1" id="path6876" d="m 65,247.36218 a 5,5 0 1 1 -10,0 5,5 0 1 1 10,0 z" transform="matrix(0.5,0,0,0.5,113.25,73.181091)"/><path id="path6878" d="m 65,247.36218 a 5,5 0 1 1 -10,0 5,5 0 1 1 10,0 z" transform="matrix(0.5,0,0,0.5,119.25,73.181091)" style="fill:#dbd4cd;fill-opacity:1;stroke:#000;stroke-opacity:1"/><path id="path6880" d="m 65,247.36218 a 5,5 0 1 1 -10,0 5,5 0 1 1 10,0 z" transform="matrix(0.5,0,0,0.5,113.25,91.181091)" style="fill:#dbd4cd;fill-opacity:1;stroke:#000;stroke-opacity:1"/><path style="fill:#ffa614;fill-opacity:1;stroke:#000;stroke-opacity:1" id="path6882" d="m 65,247.36218 a 5,5 0 1 1 -10,0 5,5 0 1 1 10,0 z" transform="matrix(0.5,0,0,0.5,119.25,91.181091)"/><path id="path6884" d="m 65,247.36218 a 5,5 0 1 1 -10,0 5,5 0 1 1 10,0 z" transform="matrix(0.5,0,0,0.5,173.25,66.181091)" style="fill:#ffa614;fill-opacity:1;stroke:#000;stroke-opacity:1"/><path style="fill:#ffa614;fill-opacity:1;stroke:#000;stroke-opacity:1" id="path6886" d="m 65,247.36218 a 5,5 0 1 1 -10,0 5,5 0 1 1 10,0 z" transform="matrix(0.5,0,0,0.5,167.25,205.18109)"/><path id="path6888" d="m 65,247.36218 a 5,5 0 1 1 -10,0 5,5 0 1 1 10,0 z" transform="matrix(0.5,0,0,0.5,167.25,219.68109)" style="fill:#ffa614;fill-opacity:1;stroke:#000;stroke-opacity:1"/><path style="fill:#ffa614;fill-opacity:1;stroke:#000;stroke-opacity:1" id="path6890" d="m 65,247.36218 a 5,5 0 1 1 -10,0 5,5 0 1 1 10,0 z" transform="matrix(0.5,0,0,0.5,167.25,235.18109)"/><path style="fill:#ffa614;fill-opacity:1;stroke:#000;stroke-opacity:1" id="path6892" d="m 65,247.36218 a 5,5 0 1 1 -10,0 5,5 0 1 1 10,0 z" transform="matrix(0.5,0,0,0.5,16,214.43109)"/><path id="path6894" d="m 65,247.36218 a 5,5 0 1 1 -10,0 5,5 0 1 1 10,0 z" transform="matrix(0.5,0,0,0.5,22,214.43109)" style="fill:#dbd4cd;fill-opacity:1;stroke:#000;stroke-opacity:1"/><path id="path6896" d="m 65,247.36218 a 5,5 0 1 1 -10,0 5,5 0 1 1 10,0 z" transform="matrix(0.5,0,0,0.5,16,228.93109)" style="fill:#dbd4cd;fill-opacity:1;stroke:#000;stroke-opacity:1"/><path style="fill:#ffa614;fill-opacity:1;stroke:#000;stroke-opacity:1" id="path6898" d="m 65,247.36218 a 5,5 0 1 1 -10,0 5,5 0 1 1 10,0 z" transform="matrix(0.5,0,0,0.5,22,228.93109)"/><path style="fill:#ffa614;fill-opacity:1;stroke:#000;stroke-opacity:1" id="path6900" d="m 65,247.36218 a 5,5 0 1 1 -10,0 5,5 0 1 1 10,0 z" transform="matrix(0.5,0,0,0.5,70,222.93109)"/><path id="path6902" d="m 65,247.36218 a 5,5 0 1 1 -10,0 5,5 0 1 1 10,0 z" transform="matrix(0.5,0,0,0.5,70,222.93109)" style="fill:#ffa614;fill-opacity:1;stroke:#000;stroke-opacity:1"/><path style="fill:#ffa614;fill-opacity:1;stroke:#000;stroke-opacity:1" id="path6904" d="m 65,247.36218 a 5,5 0 1 1 -10,0 5,5 0 1 1 10,0 z" transform="matrix(0.5,0,0,0.5,115.25,215.18109)"/><path id="path6906" d="m 65,247.36218 a 5,5 0 1 1 -10,0 5,5 0 1 1 10,0 z" transform="matrix(0.5,0,0,0.5,121.25,215.18109)" style="fill:#dbd4cd;fill-opacity:1;stroke:#000;stroke-opacity:1"/><path id="path6908" d="m 65,247.36218 a 5,5 0 1 1 -10,0 5,5 0 1 1 10,0 z" transform="matrix(0.5,0,0,0.5,115.25,231.18109)" style="fill:#dbd4cd;fill-opacity:1;stroke:#000;stroke-opacity:1"/><path style="fill:#ffa614;fill-opacity:1;stroke:#000;stroke-opacity:1" id="path6910" d="m 65,247.36218 a 5,5 0 1 1 -10,0 5,5 0 1 1 10,0 z" transform="matrix(0.5,0,0,0.5,121.25,231.18109)"/></g></svg>