<svg xmlns="http://www.w3.org/2000/svg" xmlns:svg="http://www.w3.org/2000/svg" id="svg2" width="744.094" height="1052.362" version="1.1"><metadata id="metadata7"/><g id="layer1" style="display:inline"><rect style="fill:#dbd4cd;fill-opacity:1;stroke:#000;stroke-width:.5945946;stroke-opacity:1" id="rect3079" width="240.811" height="175.405" x="18.797" y="22.159"/><path style="fill:#ffa614;fill-opacity:1;stroke:#000;stroke-opacity:1" id="path3949" d="m 65,247.36218 a 5,5 0 1 1 -10,0 5,5 0 1 1 10,0 z" transform="matrix(0.59459459,0,0,0.59459459,9.8783784,11.241425)"/><path id="path4238" d="m 65,247.36218 a 5,5 0 1 1 -10,0 5,5 0 1 1 10,0 z" transform="matrix(0.59459459,0,0,0.59459459,26.527027,11.83602)" style="fill:#ffa614;fill-opacity:1;stroke:#000;stroke-opacity:1"/><path style="fill:#ffa614;fill-opacity:1;stroke:#000;stroke-opacity:1" id="path4240" d="m 65,247.36218 a 5,5 0 1 1 -10,0 5,5 0 1 1 10,0 z" transform="matrix(0.59459459,0,0,0.59459459,46.743243,11.83602)"/><path id="path4242" d="m 65,247.36218 a 5,5 0 1 1 -10,0 5,5 0 1 1 10,0 z" transform="matrix(0.59459459,0,0,0.59459459,66.959459,11.83602)" style="fill:#ffa614;fill-opacity:1;stroke:#000;stroke-opacity:1"/><path style="fill:#ffa614;fill-opacity:1;stroke:#000;stroke-opacity:1" id="path4244" d="m 65,247.36218 a 5,5 0 1 1 -10,0 5,5 0 1 1 10,0 z" transform="matrix(0.59459459,0,0,0.59459459,82.418919,11.83602)"/><path id="path4246" d="m 65,247.36218 a 5,5 0 1 1 -10,0 5,5 0 1 1 10,0 z" transform="matrix(0.59459459,0,0,0.59459459,103.82432,11.83602)" style="fill:#ffa614;fill-opacity:1;stroke:#000;stroke-opacity:1"/><path style="fill:#91ff14;fill-opacity:1;stroke:#000;stroke-opacity:1" id="path4248" d="m 65,247.36218 a 5,5 0 1 1 -10,0 5,5 0 1 1 10,0 z" transform="matrix(0.59459459,0,0,0.59459459,131.17568,11.83602)"/><path id="path4250" d="m 65,247.36218 a 5,5 0 1 1 -10,0 5,5 0 1 1 10,0 z" transform="matrix(0.59459459,0,0,0.59459459,159.71622,11.83602)" style="fill:#91ff14;fill-opacity:1;stroke:#000;stroke-opacity:1"/><rect style="fill:#000;fill-opacity:1;stroke:#000;stroke-width:.5945946;stroke-opacity:1" id="rect4252" width="23.784" height="7.928" x="41.986" y="174.97"/><rect id="rect4254" width="23.784" height="7.928" x="69.338" y="174.97" style="fill:#000;fill-opacity:1;stroke:#000;stroke-width:.5945946;stroke-opacity:1"/><rect style="fill:#000;fill-opacity:1;stroke:#000;stroke-width:.5945946;stroke-opacity:1" id="rect4256" width="23.784" height="7.928" x="97.878" y="174.97"/><rect id="rect4258" width="23.784" height="7.928" x="126.419" y="174.97" style="fill:#000;fill-opacity:1;stroke:#000;stroke-width:.5945946;stroke-opacity:1"/><rect style="fill:#000;fill-opacity:1;stroke:#000;stroke-width:.5945946;stroke-opacity:1" id="rect4260" width="23.784" height="7.928" x="154.959" y="174.97"/><rect id="rect4262" width="23.784" height="7.928" x="183.5" y="174.97" style="fill:#fe0000;fill-opacity:1;stroke:#000;stroke-width:.5945946;stroke-opacity:1"/><rect style="fill:none;stroke:#000;stroke-width:.5945946;stroke-opacity:1" id="rect4266" width="142.703" height="53.514" x="55.068" y="34.051"/><path style="fill:none;stroke:#000;stroke-width:.99921262;stroke-miterlimit:4;stroke-opacity:1;stroke-dasharray:none" id="path4274" d="m 375,107.36218 c -0.96626,0.96626 -1.5802,-0.35768 -2.69956,0.42611 -1.11937,0.78378 -0.0852,1.81352 -1.32372,2.39102 -1.23846,0.5775 -1.36256,-0.87657 -2.68249,-0.5229 -1.31993,0.35368 -0.70037,1.675 -2.06166,1.79409 -1.36129,0.1191 -0.98059,-1.28973 -2.34188,-1.40883 -1.36129,-0.1191 -1.23101,1.33444 -2.55094,0.98077 -1.31993,-0.35368 -0.48034,-1.54734 -1.7188,-2.12484 -1.23847,-0.57751 -1.61318,0.83293 -2.73255,0.0491 -1.11936,-0.78379 0.0779,-1.6183 -0.8884,-2.58456 -0.96626,-0.96625 -1.80077,0.23096 -2.58456,-0.8884 -0.78379,-1.11937 0.62665,-1.49408 0.0491,-2.73254 -0.5775,-1.23847 -1.77116,-0.39887 -2.12483,-1.7188 -0.35368,-1.319934 1.09986,-1.189653 0.98076,-2.550946 -0.1191,-1.361293 -1.52793,-0.980587 -1.40883,-2.34188 0.1191,-1.361292 1.44042,-0.74173 1.79409,-2.06166 0.35368,-1.319931 -1.1004,-1.444033 -0.5229,-2.682496 0.57751,-1.238463 1.60724,-0.204347 2.39103,-1.323712 0.78378,-1.119365 -0.54016,-1.733307 0.4261,-2.699563 0.96626,-0.966257 1.5802,0.357684 2.69956,-0.426104 1.11937,-0.783788 0.0852,-1.813519 1.32372,-2.391024 1.23846,-0.577505 1.36256,0.876573 2.68249,0.522899 1.31993,-0.353675 0.70037,-1.674994 2.06166,-1.794092 1.36129,-0.119098 0.98059,1.289734 2.34188,1.408832 1.36129,0.119097 1.23101,-1.33444 2.55094,-0.980765 1.31993,0.353674 0.48034,1.547334 1.7188,2.124838 1.23847,0.577505 1.61318,-0.832932 2.73255,-0.04914 1.11936,0.783788 -0.0779,1.618303 0.8884,2.584559 0.96626,0.966257 1.80077,-0.23096 2.58456,0.888405 0.78379,1.119365 -0.62665,1.49408 -0.0491,2.732543 0.5775,1.238463 1.77116,0.398868 2.12483,1.718799 0.35368,1.31993 -1.09986,1.189649 -0.98076,2.550942 0.1191,1.361293 1.52793,0.980587 1.40883,2.34188 -0.1191,1.361293 -1.44042,0.74173 -1.79409,2.061659 -0.35368,1.31993 1.1004,1.44403 0.5229,2.6825 -0.57751,1.23846 -1.60724,0.20434 -2.39103,1.32371 -0.78378,1.11936 0.54016,1.73331 -0.4261,2.69956 z" transform="matrix(0.6943065,0,0,0.6943065,-28.894837,-0.84511953)"/><path id="path4323" d="m 375,107.36218 c -0.96626,0.96626 -1.5802,-0.35768 -2.69956,0.42611 -1.11937,0.78378 -0.0852,1.81352 -1.32372,2.39102 -1.23846,0.5775 -1.36256,-0.87657 -2.68249,-0.5229 -1.31993,0.35368 -0.70037,1.675 -2.06166,1.79409 -1.36129,0.1191 -0.98059,-1.28973 -2.34188,-1.40883 -1.36129,-0.1191 -1.23101,1.33444 -2.55094,0.98077 -1.31993,-0.35368 -0.48034,-1.54734 -1.7188,-2.12484 -1.23847,-0.57751 -1.61318,0.83293 -2.73255,0.0491 -1.11936,-0.78379 0.0779,-1.6183 -0.8884,-2.58456 -0.96626,-0.96625 -1.80077,0.23096 -2.58456,-0.8884 -0.78379,-1.11937 0.62665,-1.49408 0.0491,-2.73254 -0.5775,-1.23847 -1.77116,-0.39887 -2.12483,-1.7188 -0.35368,-1.319934 1.09986,-1.189653 0.98076,-2.550946 -0.1191,-1.361293 -1.52793,-0.980587 -1.40883,-2.34188 0.1191,-1.361292 1.44042,-0.74173 1.79409,-2.06166 0.35368,-1.319931 -1.1004,-1.444033 -0.5229,-2.682496 0.57751,-1.238463 1.60724,-0.204347 2.39103,-1.323712 0.78378,-1.119365 -0.54016,-1.733307 0.4261,-2.699563 0.96626,-0.966257 1.5802,0.357684 2.69956,-0.426104 1.11937,-0.783788 0.0852,-1.813519 1.32372,-2.391024 1.23846,-0.577505 1.36256,0.876573 2.68249,0.522899 1.31993,-0.353675 0.70037,-1.674994 2.06166,-1.794092 1.36129,-0.119098 0.98059,1.289734 2.34188,1.408832 1.36129,0.119097 1.23101,-1.33444 2.55094,-0.980765 1.31993,0.353674 0.48034,1.547334 1.7188,2.124838 1.23847,0.577505 1.61318,-0.832932 2.73255,-0.04914 1.11936,0.783788 -0.0779,1.618303 0.8884,2.584559 0.96626,0.966257 1.80077,-0.23096 2.58456,0.888405 0.78379,1.119365 -0.62665,1.49408 -0.0491,2.732543 0.5775,1.238463 1.77116,0.398868 2.12483,1.718799 0.35368,1.31993 -1.09986,1.189649 -0.98076,2.550942 0.1191,1.361293 1.52793,0.980587 1.40883,2.34188 -0.1191,1.361293 -1.44042,0.74173 -1.79409,2.061659 -0.35368,1.31993 1.1004,1.44403 0.5229,2.6825 -0.57751,1.23846 -1.60724,0.20434 -2.39103,1.32371 -0.78378,1.11936 0.54016,1.73331 -0.4261,2.69956 z" transform="matrix(0.6943065,0,0,0.6943065,-208.98661,50.089682)" style="fill:none;stroke:#000;stroke-width:.99921262;stroke-miterlimit:4;stroke-opacity:1;stroke-dasharray:none"/><path style="fill:none;stroke:#000;stroke-width:.99921262;stroke-miterlimit:4;stroke-opacity:1;stroke-dasharray:none" id="path4339" d="m 375,107.36218 c -0.96626,0.96626 -1.5802,-0.35768 -2.69956,0.42611 -1.11937,0.78378 -0.0852,1.81352 -1.32372,2.39102 -1.23846,0.5775 -1.36256,-0.87657 -2.68249,-0.5229 -1.31993,0.35368 -0.70037,1.675 -2.06166,1.79409 -1.36129,0.1191 -0.98059,-1.28973 -2.34188,-1.40883 -1.36129,-0.1191 -1.23101,1.33444 -2.55094,0.98077 -1.31993,-0.35368 -0.48034,-1.54734 -1.7188,-2.12484 -1.23847,-0.57751 -1.61318,0.83293 -2.73255,0.0491 -1.11936,-0.78379 0.0779,-1.6183 -0.8884,-2.58456 -0.96626,-0.96625 -1.80077,0.23096 -2.58456,-0.8884 -0.78379,-1.11937 0.62665,-1.49408 0.0491,-2.73254 -0.5775,-1.23847 -1.77116,-0.39887 -2.12483,-1.7188 -0.35368,-1.319934 1.09986,-1.189653 0.98076,-2.550946 -0.1191,-1.361293 -1.52793,-0.980587 -1.40883,-2.34188 0.1191,-1.361292 1.44042,-0.74173 1.79409,-2.06166 0.35368,-1.319931 -1.1004,-1.444033 -0.5229,-2.682496 0.57751,-1.238463 1.60724,-0.204347 2.39103,-1.323712 0.78378,-1.119365 -0.54016,-1.733307 0.4261,-2.699563 0.96626,-0.966257 1.5802,0.357684 2.69956,-0.426104 1.11937,-0.783788 0.0852,-1.813519 1.32372,-2.391024 1.23846,-0.577505 1.36256,0.876573 2.68249,0.522899 1.31993,-0.353675 0.70037,-1.674994 2.06166,-1.794092 1.36129,-0.119098 0.98059,1.289734 2.34188,1.408832 1.36129,0.119097 1.23101,-1.33444 2.55094,-0.980765 1.31993,0.353674 0.48034,1.547334 1.7188,2.124838 1.23847,0.577505 1.61318,-0.832932 2.73255,-0.04914 1.11936,0.783788 -0.0779,1.618303 0.8884,2.584559 0.96626,0.966257 1.80077,-0.23096 2.58456,0.888405 0.78379,1.119365 -0.62665,1.49408 -0.0491,2.732543 0.5775,1.238463 1.77116,0.398868 2.12483,1.718799 0.35368,1.31993 -1.09986,1.189649 -0.98076,2.550942 0.1191,1.361293 1.52793,0.980587 1.40883,2.34188 -0.1191,1.361293 -1.44042,0.74173 -1.79409,2.061659 -0.35368,1.31993 1.1004,1.44403 0.5229,2.6825 -0.57751,1.23846 -1.60724,0.20434 -2.39103,1.32371 -0.78378,1.11936 0.54016,1.73331 -0.4261,2.69956 z" transform="matrix(0.6943065,0,0,0.6943065,-156.66229,50.089682)"/><path id="path4349" d="m 375,107.36218 c -0.96626,0.96626 -1.5802,-0.35768 -2.69956,0.42611 -1.11937,0.78378 -0.0852,1.81352 -1.32372,2.39102 -1.23846,0.5775 -1.36256,-0.87657 -2.68249,-0.5229 -1.31993,0.35368 -0.70037,1.675 -2.06166,1.79409 -1.36129,0.1191 -0.98059,-1.28973 -2.34188,-1.40883 -1.36129,-0.1191 -1.23101,1.33444 -2.55094,0.98077 -1.31993,-0.35368 -0.48034,-1.54734 -1.7188,-2.12484 -1.23847,-0.57751 -1.61318,0.83293 -2.73255,0.0491 -1.11936,-0.78379 0.0779,-1.6183 -0.8884,-2.58456 -0.96626,-0.96625 -1.80077,0.23096 -2.58456,-0.8884 -0.78379,-1.11937 0.62665,-1.49408 0.0491,-2.73254 -0.5775,-1.23847 -1.77116,-0.39887 -2.12483,-1.7188 -0.35368,-1.319934 1.09986,-1.189653 0.98076,-2.550946 -0.1191,-1.361293 -1.52793,-0.980587 -1.40883,-2.34188 0.1191,-1.361292 1.44042,-0.74173 1.79409,-2.06166 0.35368,-1.319931 -1.1004,-1.444033 -0.5229,-2.682496 0.57751,-1.238463 1.60724,-0.204347 2.39103,-1.323712 0.78378,-1.119365 -0.54016,-1.733307 0.4261,-2.699563 0.96626,-0.966257 1.5802,0.357684 2.69956,-0.426104 1.11937,-0.783788 0.0852,-1.813519 1.32372,-2.391024 1.23846,-0.577505 1.36256,0.876573 2.68249,0.522899 1.31993,-0.353675 0.70037,-1.674994 2.06166,-1.794092 1.36129,-0.119098 0.98059,1.289734 2.34188,1.408832 1.36129,0.119097 1.23101,-1.33444 2.55094,-0.980765 1.31993,0.353674 0.48034,1.547334 1.7188,2.124838 1.23847,0.577505 1.61318,-0.832932 2.73255,-0.04914 1.11936,0.783788 -0.0779,1.618303 0.8884,2.584559 0.96626,0.966257 1.80077,-0.23096 2.58456,0.888405 0.78379,1.119365 -0.62665,1.49408 -0.0491,2.732543 0.5775,1.238463 1.77116,0.398868 2.12483,1.718799 0.35368,1.31993 -1.09986,1.189649 -0.98076,2.550942 0.1191,1.361293 1.52793,0.980587 1.40883,2.34188 -0.1191,1.361293 -1.44042,0.74173 -1.79409,2.061659 -0.35368,1.31993 1.1004,1.44403 0.5229,2.6825 -0.57751,1.23846 -1.60724,0.20434 -2.39103,1.32371 -0.78378,1.11936 0.54016,1.73331 -0.4261,2.69956 z" transform="matrix(0.6943065,0,0,0.6943065,-103.14877,50.089682)" style="fill:none;stroke:#000;stroke-width:.99921262;stroke-miterlimit:4;stroke-opacity:1;stroke-dasharray:none"/><path style="fill:none;stroke:#000;stroke-width:.99921262;stroke-miterlimit:4;stroke-opacity:1;stroke-dasharray:none" id="path4359" d="m 375,107.36218 c -0.96626,0.96626 -1.5802,-0.35768 -2.69956,0.42611 -1.11937,0.78378 -0.0852,1.81352 -1.32372,2.39102 -1.23846,0.5775 -1.36256,-0.87657 -2.68249,-0.5229 -1.31993,0.35368 -0.70037,1.675 -2.06166,1.79409 -1.36129,0.1191 -0.98059,-1.28973 -2.34188,-1.40883 -1.36129,-0.1191 -1.23101,1.33444 -2.55094,0.98077 -1.31993,-0.35368 -0.48034,-1.54734 -1.7188,-2.12484 -1.23847,-0.57751 -1.61318,0.83293 -2.73255,0.0491 -1.11936,-0.78379 0.0779,-1.6183 -0.8884,-2.58456 -0.96626,-0.96625 -1.80077,0.23096 -2.58456,-0.8884 -0.78379,-1.11937 0.62665,-1.49408 0.0491,-2.73254 -0.5775,-1.23847 -1.77116,-0.39887 -2.12483,-1.7188 -0.35368,-1.319934 1.09986,-1.189653 0.98076,-2.550946 -0.1191,-1.361293 -1.52793,-0.980587 -1.40883,-2.34188 0.1191,-1.361292 1.44042,-0.74173 1.79409,-2.06166 0.35368,-1.319931 -1.1004,-1.444033 -0.5229,-2.682496 0.57751,-1.238463 1.60724,-0.204347 2.39103,-1.323712 0.78378,-1.119365 -0.54016,-1.733307 0.4261,-2.699563 0.96626,-0.966257 1.5802,0.357684 2.69956,-0.426104 1.11937,-0.783788 0.0852,-1.813519 1.32372,-2.391024 1.23846,-0.577505 1.36256,0.876573 2.68249,0.522899 1.31993,-0.353675 0.70037,-1.674994 2.06166,-1.794092 1.36129,-0.119098 0.98059,1.289734 2.34188,1.408832 1.36129,0.119097 1.23101,-1.33444 2.55094,-0.980765 1.31993,0.353674 0.48034,1.547334 1.7188,2.124838 1.23847,0.577505 1.61318,-0.832932 2.73255,-0.04914 1.11936,0.783788 -0.0779,1.618303 0.8884,2.584559 0.96626,0.966257 1.80077,-0.23096 2.58456,0.888405 0.78379,1.119365 -0.62665,1.49408 -0.0491,2.732543 0.5775,1.238463 1.77116,0.398868 2.12483,1.718799 0.35368,1.31993 -1.09986,1.189649 -0.98076,2.550942 0.1191,1.361293 1.52793,0.980587 1.40883,2.34188 -0.1191,1.361293 -1.44042,0.74173 -1.79409,2.061659 -0.35368,1.31993 1.1004,1.44403 0.5229,2.6825 -0.57751,1.23846 -1.60724,0.20434 -2.39103,1.32371 -0.78378,1.11936 0.54016,1.73331 -0.4261,2.69956 z" transform="matrix(0.6943065,0,0,0.6943065,-47.256882,50.089682)"/><rect style="fill:#000;fill-opacity:1;stroke:#000;stroke-width:.5945946;stroke-opacity:1" id="rect4366" width="130.811" height="35.676" x="61.014" y="42.97"/><text style="font-size:12.59668827px;font-style:normal;font-weight:400;fill:red;fill-opacity:1;stroke:none;font-family:Bitstream Vera Sans" id="text4368" x="65.77" y="56.562" xml:space="preserve"><tspan id="tspan4372" x="65.77" y="56.562" style="font-size:12.59668827px;font-style:normal;font-variant:normal;font-weight:400;font-stretch:normal;text-align:start;line-height:108.00000429%;writing-mode:lr-tb;text-anchor:start;fill:red;fill-opacity:1;font-family:Andale Mono;-inkscape-font-specification:Andale Mono">midi</tspan><tspan id="tspan4374" x="65.77" y="70.166" style="font-size:12.59668827px;font-style:normal;font-variant:normal;font-weight:400;font-stretch:normal;text-align:start;line-height:108.00000429%;writing-mode:lr-tb;text-anchor:start;fill:red;fill-opacity:1;font-family:Andale Mono;-inkscape-font-specification:Andale Mono">midi out 3&gt;2</tspan></text><path style="fill:none;stroke:#000;stroke-opacity:1;display:inline" id="path4268" d="m 385,97.362183 a 20,20 0 1 1 -40,0 20,20 0 1 1 40,0 z" transform="matrix(0.74324324,0,0,0.74324324,-46.756757,-5.6097101)"/><path id="path4276" d="m 385,97.362183 a 20,20 0 1 1 -40,0 20,20 0 1 1 40,0 z" transform="matrix(0.36800872,0,0,0.36800872,90.203845,30.923942)" style="fill:#2b2b2b;fill-opacity:1;stroke:#000;stroke-opacity:1;display:inline"/><path id="path4319" d="m 385,97.362183 a 20,20 0 1 1 -40,0 20,20 0 1 1 40,0 z" transform="matrix(0.74324324,0,0,0.74324324,-226.84853,45.325091)" style="fill:none;stroke:#000;stroke-opacity:1;display:inline"/><path style="fill:none;stroke:#000;stroke-opacity:1;display:inline" id="path4321" d="m 385,97.362183 a 20,20 0 1 1 -40,0 20,20 0 1 1 40,0 z" transform="matrix(0.36800872,0,0,0.36800872,-89.887935,81.858738)"/><rect style="fill:#000;fill-opacity:1;stroke:#000;stroke-width:.50200361;stroke-miterlimit:4;stroke-opacity:1;stroke-dasharray:none;display:inline" id="rect4327" width="8.756" height="2.795" x="34.169" y="116.356"/><path style="fill:#000;fill-opacity:1;stroke:none;display:inline" id="path4329" d="m 386.71329,179.98456 a 4.1958041,4.1958041 0 1 1 -8.39161,0 4.1958041,4.1958041 0 1 1 8.39161,0 z" transform="matrix(0.59459459,0,0,0.59459459,-183.10893,10.632045)"/><path style="fill:none;stroke:#000;stroke-opacity:1;display:inline" id="path4331" d="m 385,97.362183 a 20,20 0 1 1 -40,0 20,20 0 1 1 40,0 z" transform="matrix(0.74324324,0,0,0.74324324,-174.52421,45.325091)"/><path id="path4333" d="m 385,97.362183 a 20,20 0 1 1 -40,0 20,20 0 1 1 40,0 z" transform="matrix(0.36800872,0,0,0.36800872,-37.563611,81.858738)" style="fill:none;stroke:#000;stroke-opacity:1;display:inline"/><rect id="rect4335" width="8.756" height="2.795" x="86.493" y="116.356" style="fill:#000;fill-opacity:1;stroke:#000;stroke-width:.50200361;stroke-miterlimit:4;stroke-opacity:1;stroke-dasharray:none;display:inline"/><path id="path4337" d="m 386.71329,179.98456 a 4.1958041,4.1958041 0 1 1 -8.39161,0 4.1958041,4.1958041 0 1 1 8.39161,0 z" transform="matrix(0.59459459,0,0,0.59459459,-130.7846,10.632045)" style="fill:#000;fill-opacity:1;stroke:none;display:inline"/><path id="path4341" d="m 385,97.362183 a 20,20 0 1 1 -40,0 20,20 0 1 1 40,0 z" transform="matrix(0.74324324,0,0,0.74324324,-121.01069,45.325091)" style="fill:none;stroke:#000;stroke-opacity:1;display:inline"/><path style="fill:none;stroke:#000;stroke-opacity:1;display:inline" id="path4343" d="m 385,97.362183 a 20,20 0 1 1 -40,0 20,20 0 1 1 40,0 z" transform="matrix(0.36800872,0,0,0.36800872,15.949903,81.858738)"/><rect style="fill:#000;fill-opacity:1;stroke:#000;stroke-width:.50200361;stroke-miterlimit:4;stroke-opacity:1;stroke-dasharray:none;display:inline" id="rect4345" width="8.756" height="2.795" x="140.007" y="116.356"/><path style="fill:#000;fill-opacity:1;stroke:none;display:inline" id="path4347" d="m 386.71329,179.98456 a 4.1958041,4.1958041 0 1 1 -8.39161,0 4.1958041,4.1958041 0 1 1 8.39161,0 z" transform="matrix(0.59459459,0,0,0.59459459,-77.27109,10.632045)"/><path style="fill:none;stroke:#000;stroke-opacity:1;display:inline" id="path4351" d="m 385,97.362183 a 20,20 0 1 1 -40,0 20,20 0 1 1 40,0 z" transform="matrix(0.74324324,0,0,0.74324324,-65.118801,45.325091)"/><path id="path4353" d="m 385,97.362183 a 20,20 0 1 1 -40,0 20,20 0 1 1 40,0 z" transform="matrix(0.36800872,0,0,0.36800872,71.841795,81.858738)" style="fill:none;stroke:#000;stroke-opacity:1;display:inline"/><rect id="rect4355" width="8.756" height="2.795" x="195.899" y="116.356" style="fill:#000;fill-opacity:1;stroke:#000;stroke-width:.50200361;stroke-miterlimit:4;stroke-opacity:1;stroke-dasharray:none;display:inline"/><path id="path4357" d="m 386.71329,179.98456 a 4.1958041,4.1958041 0 1 1 -8.39161,0 4.1958041,4.1958041 0 1 1 8.39161,0 z" transform="matrix(0.59459459,0,0,0.59459459,-21.379198,10.632045)" style="fill:#000;fill-opacity:1;stroke:none;display:inline"/><rect id="rect7251" width="240.811" height="175.405" x="284.797" y="22.159" style="fill:#dbd4cd;fill-opacity:1;stroke:#000;stroke-width:.5945946;stroke-opacity:1"/><path id="path7253" d="m 65,247.36218 a 5,5 0 1 1 -10,0 5,5 0 1 1 10,0 z" transform="matrix(0.59459459,0,0,0.59459459,275.87838,11.241425)" style="fill:#ffa614;fill-opacity:1;stroke:#000;stroke-opacity:1"/><path style="fill:#ffa614;fill-opacity:1;stroke:#000;stroke-opacity:1" id="path7255" d="m 65,247.36218 a 5,5 0 1 1 -10,0 5,5 0 1 1 10,0 z" transform="matrix(0.59459459,0,0,0.59459459,292.52703,11.83602)"/><path id="path7257" d="m 65,247.36218 a 5,5 0 1 1 -10,0 5,5 0 1 1 10,0 z" transform="matrix(0.59459459,0,0,0.59459459,312.74324,11.83602)" style="fill:#ffa614;fill-opacity:1;stroke:#000;stroke-opacity:1"/><path style="fill:#ffa614;fill-opacity:1;stroke:#000;stroke-opacity:1" id="path7259" d="m 65,247.36218 a 5,5 0 1 1 -10,0 5,5 0 1 1 10,0 z" transform="matrix(0.59459459,0,0,0.59459459,332.95946,11.83602)"/><path id="path7261" d="m 65,247.36218 a 5,5 0 1 1 -10,0 5,5 0 1 1 10,0 z" transform="matrix(0.59459459,0,0,0.59459459,348.41892,11.83602)" style="fill:#ffa614;fill-opacity:1;stroke:#000;stroke-opacity:1"/><path style="fill:#ffa614;fill-opacity:1;stroke:#000;stroke-opacity:1" id="path7263" d="m 65,247.36218 a 5,5 0 1 1 -10,0 5,5 0 1 1 10,0 z" transform="matrix(0.59459459,0,0,0.59459459,369.82432,11.83602)"/><path id="path7265" d="m 65,247.36218 a 5,5 0 1 1 -10,0 5,5 0 1 1 10,0 z" transform="matrix(0.59459459,0,0,0.59459459,397.17568,11.83602)" style="fill:#91ff14;fill-opacity:1;stroke:#000;stroke-opacity:1"/><path style="fill:#91ff14;fill-opacity:1;stroke:#000;stroke-opacity:1" id="path7267" d="m 65,247.36218 a 5,5 0 1 1 -10,0 5,5 0 1 1 10,0 z" transform="matrix(0.59459459,0,0,0.59459459,425.71622,11.83602)"/><rect id="rect7269" width="23.784" height="7.928" x="307.986" y="174.97" style="fill:#000;fill-opacity:1;stroke:#000;stroke-width:.5945946;stroke-opacity:1"/><rect style="fill:#000;fill-opacity:1;stroke:#000;stroke-width:.5945946;stroke-opacity:1" id="rect7271" width="23.784" height="7.928" x="335.338" y="174.97"/><rect id="rect7273" width="23.784" height="7.928" x="363.878" y="174.97" style="fill:#000;fill-opacity:1;stroke:#000;stroke-width:.5945946;stroke-opacity:1"/><rect style="fill:#000;fill-opacity:1;stroke:#000;stroke-width:.5945946;stroke-opacity:1" id="rect7275" width="23.784" height="7.928" x="392.419" y="174.97"/><rect id="rect7277" width="23.784" height="7.928" x="420.959" y="174.97" style="fill:#000;fill-opacity:1;stroke:#000;stroke-width:.5945946;stroke-opacity:1"/><rect style="fill:#fe0000;fill-opacity:1;stroke:#000;stroke-width:.5945946;stroke-opacity:1" id="rect7279" width="23.784" height="7.928" x="449.5" y="174.97"/><rect id="rect7281" width="142.703" height="53.514" x="321.068" y="34.051" style="fill:none;stroke:#000;stroke-width:.5945946;stroke-opacity:1"/><path id="path7283" d="m 375,107.36218 c -0.96626,0.96626 -1.5802,-0.35768 -2.69956,0.42611 -1.11937,0.78378 -0.0852,1.81352 -1.32372,2.39102 -1.23846,0.5775 -1.36256,-0.87657 -2.68249,-0.5229 -1.31993,0.35368 -0.70037,1.675 -2.06166,1.79409 -1.36129,0.1191 -0.98059,-1.28973 -2.34188,-1.40883 -1.36129,-0.1191 -1.23101,1.33444 -2.55094,0.98077 -1.31993,-0.35368 -0.48034,-1.54734 -1.7188,-2.12484 -1.23847,-0.57751 -1.61318,0.83293 -2.73255,0.0491 -1.11936,-0.78379 0.0779,-1.6183 -0.8884,-2.58456 -0.96626,-0.96625 -1.80077,0.23096 -2.58456,-0.8884 -0.78379,-1.11937 0.62665,-1.49408 0.0491,-2.73254 -0.5775,-1.23847 -1.77116,-0.39887 -2.12483,-1.7188 -0.35368,-1.319934 1.09986,-1.189653 0.98076,-2.550946 -0.1191,-1.361293 -1.52793,-0.980587 -1.40883,-2.34188 0.1191,-1.361292 1.44042,-0.74173 1.79409,-2.06166 0.35368,-1.319931 -1.1004,-1.444033 -0.5229,-2.682496 0.57751,-1.238463 1.60724,-0.204347 2.39103,-1.323712 0.78378,-1.119365 -0.54016,-1.733307 0.4261,-2.699563 0.96626,-0.966257 1.5802,0.357684 2.69956,-0.426104 1.11937,-0.783788 0.0852,-1.813519 1.32372,-2.391024 1.23846,-0.577505 1.36256,0.876573 2.68249,0.522899 1.31993,-0.353675 0.70037,-1.674994 2.06166,-1.794092 1.36129,-0.119098 0.98059,1.289734 2.34188,1.408832 1.36129,0.119097 1.23101,-1.33444 2.55094,-0.980765 1.31993,0.353674 0.48034,1.547334 1.7188,2.124838 1.23847,0.577505 1.61318,-0.832932 2.73255,-0.04914 1.11936,0.783788 -0.0779,1.618303 0.8884,2.584559 0.96626,0.966257 1.80077,-0.23096 2.58456,0.888405 0.78379,1.119365 -0.62665,1.49408 -0.0491,2.732543 0.5775,1.238463 1.77116,0.398868 2.12483,1.718799 0.35368,1.31993 -1.09986,1.189649 -0.98076,2.550942 0.1191,1.361293 1.52793,0.980587 1.40883,2.34188 -0.1191,1.361293 -1.44042,0.74173 -1.79409,2.061659 -0.35368,1.31993 1.1004,1.44403 0.5229,2.6825 -0.57751,1.23846 -1.60724,0.20434 -2.39103,1.32371 -0.78378,1.11936 0.54016,1.73331 -0.4261,2.69956 z" transform="matrix(0.6943065,0,0,0.6943065,237.10516,-0.84511953)" style="fill:none;stroke:#000;stroke-width:.99921262;stroke-miterlimit:4;stroke-opacity:1;stroke-dasharray:none"/><path style="fill:none;stroke:#000;stroke-width:.99921262;stroke-miterlimit:4;stroke-opacity:1;stroke-dasharray:none" id="path7285" d="m 375,107.36218 c -0.96626,0.96626 -1.5802,-0.35768 -2.69956,0.42611 -1.11937,0.78378 -0.0852,1.81352 -1.32372,2.39102 -1.23846,0.5775 -1.36256,-0.87657 -2.68249,-0.5229 -1.31993,0.35368 -0.70037,1.675 -2.06166,1.79409 -1.36129,0.1191 -0.98059,-1.28973 -2.34188,-1.40883 -1.36129,-0.1191 -1.23101,1.33444 -2.55094,0.98077 -1.31993,-0.35368 -0.48034,-1.54734 -1.7188,-2.12484 -1.23847,-0.57751 -1.61318,0.83293 -2.73255,0.0491 -1.11936,-0.78379 0.0779,-1.6183 -0.8884,-2.58456 -0.96626,-0.96625 -1.80077,0.23096 -2.58456,-0.8884 -0.78379,-1.11937 0.62665,-1.49408 0.0491,-2.73254 -0.5775,-1.23847 -1.77116,-0.39887 -2.12483,-1.7188 -0.35368,-1.319934 1.09986,-1.189653 0.98076,-2.550946 -0.1191,-1.361293 -1.52793,-0.980587 -1.40883,-2.34188 0.1191,-1.361292 1.44042,-0.74173 1.79409,-2.06166 0.35368,-1.319931 -1.1004,-1.444033 -0.5229,-2.682496 0.57751,-1.238463 1.60724,-0.204347 2.39103,-1.323712 0.78378,-1.119365 -0.54016,-1.733307 0.4261,-2.699563 0.96626,-0.966257 1.5802,0.357684 2.69956,-0.426104 1.11937,-0.783788 0.0852,-1.813519 1.32372,-2.391024 1.23846,-0.577505 1.36256,0.876573 2.68249,0.522899 1.31993,-0.353675 0.70037,-1.674994 2.06166,-1.794092 1.36129,-0.119098 0.98059,1.289734 2.34188,1.408832 1.36129,0.119097 1.23101,-1.33444 2.55094,-0.980765 1.31993,0.353674 0.48034,1.547334 1.7188,2.124838 1.23847,0.577505 1.61318,-0.832932 2.73255,-0.04914 1.11936,0.783788 -0.0779,1.618303 0.8884,2.584559 0.96626,0.966257 1.80077,-0.23096 2.58456,0.888405 0.78379,1.119365 -0.62665,1.49408 -0.0491,2.732543 0.5775,1.238463 1.77116,0.398868 2.12483,1.718799 0.35368,1.31993 -1.09986,1.189649 -0.98076,2.550942 0.1191,1.361293 1.52793,0.980587 1.40883,2.34188 -0.1191,1.361293 -1.44042,0.74173 -1.79409,2.061659 -0.35368,1.31993 1.1004,1.44403 0.5229,2.6825 -0.57751,1.23846 -1.60724,0.20434 -2.39103,1.32371 -0.78378,1.11936 0.54016,1.73331 -0.4261,2.69956 z" transform="matrix(0.6943065,0,0,0.6943065,57.01339,50.089682)"/><path id="path7287" d="m 375,107.36218 c -0.96626,0.96626 -1.5802,-0.35768 -2.69956,0.42611 -1.11937,0.78378 -0.0852,1.81352 -1.32372,2.39102 -1.23846,0.5775 -1.36256,-0.87657 -2.68249,-0.5229 -1.31993,0.35368 -0.70037,1.675 -2.06166,1.79409 -1.36129,0.1191 -0.98059,-1.28973 -2.34188,-1.40883 -1.36129,-0.1191 -1.23101,1.33444 -2.55094,0.98077 -1.31993,-0.35368 -0.48034,-1.54734 -1.7188,-2.12484 -1.23847,-0.57751 -1.61318,0.83293 -2.73255,0.0491 -1.11936,-0.78379 0.0779,-1.6183 -0.8884,-2.58456 -0.96626,-0.96625 -1.80077,0.23096 -2.58456,-0.8884 -0.78379,-1.11937 0.62665,-1.49408 0.0491,-2.73254 -0.5775,-1.23847 -1.77116,-0.39887 -2.12483,-1.7188 -0.35368,-1.319934 1.09986,-1.189653 0.98076,-2.550946 -0.1191,-1.361293 -1.52793,-0.980587 -1.40883,-2.34188 0.1191,-1.361292 1.44042,-0.74173 1.79409,-2.06166 0.35368,-1.319931 -1.1004,-1.444033 -0.5229,-2.682496 0.57751,-1.238463 1.60724,-0.204347 2.39103,-1.323712 0.78378,-1.119365 -0.54016,-1.733307 0.4261,-2.699563 0.96626,-0.966257 1.5802,0.357684 2.69956,-0.426104 1.11937,-0.783788 0.0852,-1.813519 1.32372,-2.391024 1.23846,-0.577505 1.36256,0.876573 2.68249,0.522899 1.31993,-0.353675 0.70037,-1.674994 2.06166,-1.794092 1.36129,-0.119098 0.98059,1.289734 2.34188,1.408832 1.36129,0.119097 1.23101,-1.33444 2.55094,-0.980765 1.31993,0.353674 0.48034,1.547334 1.7188,2.124838 1.23847,0.577505 1.61318,-0.832932 2.73255,-0.04914 1.11936,0.783788 -0.0779,1.618303 0.8884,2.584559 0.96626,0.966257 1.80077,-0.23096 2.58456,0.888405 0.78379,1.119365 -0.62665,1.49408 -0.0491,2.732543 0.5775,1.238463 1.77116,0.398868 2.12483,1.718799 0.35368,1.31993 -1.09986,1.189649 -0.98076,2.550942 0.1191,1.361293 1.52793,0.980587 1.40883,2.34188 -0.1191,1.361293 -1.44042,0.74173 -1.79409,2.061659 -0.35368,1.31993 1.1004,1.44403 0.5229,2.6825 -0.57751,1.23846 -1.60724,0.20434 -2.39103,1.32371 -0.78378,1.11936 0.54016,1.73331 -0.4261,2.69956 z" transform="matrix(0.6943065,0,0,0.6943065,109.33771,50.089682)" style="fill:none;stroke:#000;stroke-width:.99921262;stroke-miterlimit:4;stroke-opacity:1;stroke-dasharray:none"/><path style="fill:none;stroke:#000;stroke-width:.99921262;stroke-miterlimit:4;stroke-opacity:1;stroke-dasharray:none" id="path7289" d="m 375,107.36218 c -0.96626,0.96626 -1.5802,-0.35768 -2.69956,0.42611 -1.11937,0.78378 -0.0852,1.81352 -1.32372,2.39102 -1.23846,0.5775 -1.36256,-0.87657 -2.68249,-0.5229 -1.31993,0.35368 -0.70037,1.675 -2.06166,1.79409 -1.36129,0.1191 -0.98059,-1.28973 -2.34188,-1.40883 -1.36129,-0.1191 -1.23101,1.33444 -2.55094,0.98077 -1.31993,-0.35368 -0.48034,-1.54734 -1.7188,-2.12484 -1.23847,-0.57751 -1.61318,0.83293 -2.73255,0.0491 -1.11936,-0.78379 0.0779,-1.6183 -0.8884,-2.58456 -0.96626,-0.96625 -1.80077,0.23096 -2.58456,-0.8884 -0.78379,-1.11937 0.62665,-1.49408 0.0491,-2.73254 -0.5775,-1.23847 -1.77116,-0.39887 -2.12483,-1.7188 -0.35368,-1.319934 1.09986,-1.189653 0.98076,-2.550946 -0.1191,-1.361293 -1.52793,-0.980587 -1.40883,-2.34188 0.1191,-1.361292 1.44042,-0.74173 1.79409,-2.06166 0.35368,-1.319931 -1.1004,-1.444033 -0.5229,-2.682496 0.57751,-1.238463 1.60724,-0.204347 2.39103,-1.323712 0.78378,-1.119365 -0.54016,-1.733307 0.4261,-2.699563 0.96626,-0.966257 1.5802,0.357684 2.69956,-0.426104 1.11937,-0.783788 0.0852,-1.813519 1.32372,-2.391024 1.23846,-0.577505 1.36256,0.876573 2.68249,0.522899 1.31993,-0.353675 0.70037,-1.674994 2.06166,-1.794092 1.36129,-0.119098 0.98059,1.289734 2.34188,1.408832 1.36129,0.119097 1.23101,-1.33444 2.55094,-0.980765 1.31993,0.353674 0.48034,1.547334 1.7188,2.124838 1.23847,0.577505 1.61318,-0.832932 2.73255,-0.04914 1.11936,0.783788 -0.0779,1.618303 0.8884,2.584559 0.96626,0.966257 1.80077,-0.23096 2.58456,0.888405 0.78379,1.119365 -0.62665,1.49408 -0.0491,2.732543 0.5775,1.238463 1.77116,0.398868 2.12483,1.718799 0.35368,1.31993 -1.09986,1.189649 -0.98076,2.550942 0.1191,1.361293 1.52793,0.980587 1.40883,2.34188 -0.1191,1.361293 -1.44042,0.74173 -1.79409,2.061659 -0.35368,1.31993 1.1004,1.44403 0.5229,2.6825 -0.57751,1.23846 -1.60724,0.20434 -2.39103,1.32371 -0.78378,1.11936 0.54016,1.73331 -0.4261,2.69956 z" transform="matrix(0.6943065,0,0,0.6943065,162.85123,50.089682)"/><path id="path7291" d="m 375,107.36218 c -0.96626,0.96626 -1.5802,-0.35768 -2.69956,0.42611 -1.11937,0.78378 -0.0852,1.81352 -1.32372,2.39102 -1.23846,0.5775 -1.36256,-0.87657 -2.68249,-0.5229 -1.31993,0.35368 -0.70037,1.675 -2.06166,1.79409 -1.36129,0.1191 -0.98059,-1.28973 -2.34188,-1.40883 -1.36129,-0.1191 -1.23101,1.33444 -2.55094,0.98077 -1.31993,-0.35368 -0.48034,-1.54734 -1.7188,-2.12484 -1.23847,-0.57751 -1.61318,0.83293 -2.73255,0.0491 -1.11936,-0.78379 0.0779,-1.6183 -0.8884,-2.58456 -0.96626,-0.96625 -1.80077,0.23096 -2.58456,-0.8884 -0.78379,-1.11937 0.62665,-1.49408 0.0491,-2.73254 -0.5775,-1.23847 -1.77116,-0.39887 -2.12483,-1.7188 -0.35368,-1.319934 1.09986,-1.189653 0.98076,-2.550946 -0.1191,-1.361293 -1.52793,-0.980587 -1.40883,-2.34188 0.1191,-1.361292 1.44042,-0.74173 1.79409,-2.06166 0.35368,-1.319931 -1.1004,-1.444033 -0.5229,-2.682496 0.57751,-1.238463 1.60724,-0.204347 2.39103,-1.323712 0.78378,-1.119365 -0.54016,-1.733307 0.4261,-2.699563 0.96626,-0.966257 1.5802,0.357684 2.69956,-0.426104 1.11937,-0.783788 0.0852,-1.813519 1.32372,-2.391024 1.23846,-0.577505 1.36256,0.876573 2.68249,0.522899 1.31993,-0.353675 0.70037,-1.674994 2.06166,-1.794092 1.36129,-0.119098 0.98059,1.289734 2.34188,1.408832 1.36129,0.119097 1.23101,-1.33444 2.55094,-0.980765 1.31993,0.353674 0.48034,1.547334 1.7188,2.124838 1.23847,0.577505 1.61318,-0.832932 2.73255,-0.04914 1.11936,0.783788 -0.0779,1.618303 0.8884,2.584559 0.96626,0.966257 1.80077,-0.23096 2.58456,0.888405 0.78379,1.119365 -0.62665,1.49408 -0.0491,2.732543 0.5775,1.238463 1.77116,0.398868 2.12483,1.718799 0.35368,1.31993 -1.09986,1.189649 -0.98076,2.550942 0.1191,1.361293 1.52793,0.980587 1.40883,2.34188 -0.1191,1.361293 -1.44042,0.74173 -1.79409,2.061659 -0.35368,1.31993 1.1004,1.44403 0.5229,2.6825 -0.57751,1.23846 -1.60724,0.20434 -2.39103,1.32371 -0.78378,1.11936 0.54016,1.73331 -0.4261,2.69956 z" transform="matrix(0.6943065,0,0,0.6943065,218.74312,50.089682)" style="fill:none;stroke:#000;stroke-width:.99921262;stroke-miterlimit:4;stroke-opacity:1;stroke-dasharray:none"/><rect id="rect7293" width="130.811" height="35.676" x="327.014" y="42.97" style="fill:#000;fill-opacity:1;stroke:#000;stroke-width:.5945946;stroke-opacity:1"/><text id="text7295" x="331.77" y="56.562" xml:space="preserve" style="font-size:12.59668827px;font-style:normal;font-weight:400;fill:red;fill-opacity:1;stroke:none;font-family:Bitstream Vera Sans"><tspan style="font-size:12.59668827px;font-style:normal;font-variant:normal;font-weight:400;font-stretch:normal;text-align:start;line-height:108.00000429%;writing-mode:lr-tb;text-anchor:start;fill:red;fill-opacity:1;font-family:Andale Mono;-inkscape-font-specification:Andale Mono" id="tspan7297" x="331.77" y="56.562">midi</tspan><tspan style="font-size:12.59668827px;font-style:normal;font-variant:normal;font-weight:400;font-stretch:normal;text-align:start;line-height:108.00000429%;writing-mode:lr-tb;text-anchor:start;fill:red;fill-opacity:1;font-family:Andale Mono;-inkscape-font-specification:Andale Mono" id="tspan7299" x="331.77" y="70.166">midi out 2&gt;1</tspan></text><path id="path7301" d="m 385,97.362183 a 20,20 0 1 1 -40,0 20,20 0 1 1 40,0 z" transform="matrix(0.74324324,0,0,0.74324324,219.24324,-5.6097101)" style="fill:none;stroke:#000;stroke-opacity:1;display:inline"/><path style="fill:#2b2b2b;fill-opacity:1;stroke:#000;stroke-opacity:1;display:inline" id="path7303" d="m 385,97.362183 a 20,20 0 1 1 -40,0 20,20 0 1 1 40,0 z" transform="matrix(0.36800872,0,0,0.36800872,356.20385,30.923942)"/><path style="fill:none;stroke:#000;stroke-opacity:1;display:inline" id="path7305" d="m 385,97.362183 a 20,20 0 1 1 -40,0 20,20 0 1 1 40,0 z" transform="matrix(0.74324324,0,0,0.74324324,39.15147,45.325091)"/><path id="path7307" d="m 385,97.362183 a 20,20 0 1 1 -40,0 20,20 0 1 1 40,0 z" transform="matrix(0.36800872,0,0,0.36800872,176.11207,81.858738)" style="fill:none;stroke:#000;stroke-opacity:1;display:inline"/><rect id="rect7309" width="8.756" height="2.795" x="300.169" y="116.356" style="fill:#000;fill-opacity:1;stroke:#000;stroke-width:.50200361;stroke-miterlimit:4;stroke-opacity:1;stroke-dasharray:none;display:inline"/><path id="path7311" d="m 386.71329,179.98456 a 4.1958041,4.1958041 0 1 1 -8.39161,0 4.1958041,4.1958041 0 1 1 8.39161,0 z" transform="matrix(0.59459459,0,0,0.59459459,82.89107,10.632045)" style="fill:#000;fill-opacity:1;stroke:none;display:inline"/><path id="path7313" d="m 385,97.362183 a 20,20 0 1 1 -40,0 20,20 0 1 1 40,0 z" transform="matrix(0.74324324,0,0,0.74324324,91.47579,45.325091)" style="fill:none;stroke:#000;stroke-opacity:1;display:inline"/><path style="fill:none;stroke:#000;stroke-opacity:1;display:inline" id="path7315" d="m 385,97.362183 a 20,20 0 1 1 -40,0 20,20 0 1 1 40,0 z" transform="matrix(0.36800872,0,0,0.36800872,228.43639,81.858738)"/><rect style="fill:#000;fill-opacity:1;stroke:#000;stroke-width:.50200361;stroke-miterlimit:4;stroke-opacity:1;stroke-dasharray:none;display:inline" id="rect7317" width="8.756" height="2.795" x="352.493" y="116.356"/><path style="fill:#000;fill-opacity:1;stroke:none;display:inline" id="path7319" d="m 386.71329,179.98456 a 4.1958041,4.1958041 0 1 1 -8.39161,0 4.1958041,4.1958041 0 1 1 8.39161,0 z" transform="matrix(0.59459459,0,0,0.59459459,135.2154,10.632045)"/><path style="fill:none;stroke:#000;stroke-opacity:1;display:inline" id="path7321" d="m 385,97.362183 a 20,20 0 1 1 -40,0 20,20 0 1 1 40,0 z" transform="matrix(0.74324324,0,0,0.74324324,144.98931,45.325091)"/><path id="path7323" d="m 385,97.362183 a 20,20 0 1 1 -40,0 20,20 0 1 1 40,0 z" transform="matrix(0.36800872,0,0,0.36800872,281.9499,81.858738)" style="fill:none;stroke:#000;stroke-opacity:1;display:inline"/><rect id="rect7325" width="8.756" height="2.795" x="406.007" y="116.356" style="fill:#000;fill-opacity:1;stroke:#000;stroke-width:.50200361;stroke-miterlimit:4;stroke-opacity:1;stroke-dasharray:none;display:inline"/><path id="path7327" d="m 386.71329,179.98456 a 4.1958041,4.1958041 0 1 1 -8.39161,0 4.1958041,4.1958041 0 1 1 8.39161,0 z" transform="matrix(0.59459459,0,0,0.59459459,188.72891,10.632045)" style="fill:#000;fill-opacity:1;stroke:none;display:inline"/><path id="path7329" d="m 385,97.362183 a 20,20 0 1 1 -40,0 20,20 0 1 1 40,0 z" transform="matrix(0.74324324,0,0,0.74324324,200.8812,45.325091)" style="fill:none;stroke:#000;stroke-opacity:1;display:inline"/><path style="fill:none;stroke:#000;stroke-opacity:1;display:inline" id="path7331" d="m 385,97.362183 a 20,20 0 1 1 -40,0 20,20 0 1 1 40,0 z" transform="matrix(0.36800872,0,0,0.36800872,337.8418,81.858738)"/><rect style="fill:#000;fill-opacity:1;stroke:#000;stroke-width:.50200361;stroke-miterlimit:4;stroke-opacity:1;stroke-dasharray:none;display:inline" id="rect7333" width="8.756" height="2.795" x="461.899" y="116.356"/><path style="fill:#000;fill-opacity:1;stroke:none;display:inline" id="path7335" d="m 386.71329,179.98456 a 4.1958041,4.1958041 0 1 1 -8.39161,0 4.1958041,4.1958041 0 1 1 8.39161,0 z" transform="matrix(0.59459459,0,0,0.59459459,244.6208,10.632045)"/><rect id="rect7337" width="240.811" height="175.405" x="550.797" y="22.159" style="fill:#dbd4cd;fill-opacity:1;stroke:#000;stroke-width:.5945946;stroke-opacity:1"/><path id="path7339" d="m 65,247.36218 a 5,5 0 1 1 -10,0 5,5 0 1 1 10,0 z" transform="matrix(0.59459459,0,0,0.59459459,541.87838,11.241425)" style="fill:#ffa614;fill-opacity:1;stroke:#000;stroke-opacity:1"/><path style="fill:#ffa614;fill-opacity:1;stroke:#000;stroke-opacity:1" id="path7341" d="m 65,247.36218 a 5,5 0 1 1 -10,0 5,5 0 1 1 10,0 z" transform="matrix(0.59459459,0,0,0.59459459,558.52703,11.83602)"/><path id="path7343" d="m 65,247.36218 a 5,5 0 1 1 -10,0 5,5 0 1 1 10,0 z" transform="matrix(0.59459459,0,0,0.59459459,578.74324,11.83602)" style="fill:#ffa614;fill-opacity:1;stroke:#000;stroke-opacity:1"/><path style="fill:#ffa614;fill-opacity:1;stroke:#000;stroke-opacity:1" id="path7345" d="m 65,247.36218 a 5,5 0 1 1 -10,0 5,5 0 1 1 10,0 z" transform="matrix(0.59459459,0,0,0.59459459,598.95946,11.83602)"/><path id="path7347" d="m 65,247.36218 a 5,5 0 1 1 -10,0 5,5 0 1 1 10,0 z" transform="matrix(0.59459459,0,0,0.59459459,614.41892,11.83602)" style="fill:#ffa614;fill-opacity:1;stroke:#000;stroke-opacity:1"/><path style="fill:#ffa614;fill-opacity:1;stroke:#000;stroke-opacity:1" id="path7349" d="m 65,247.36218 a 5,5 0 1 1 -10,0 5,5 0 1 1 10,0 z" transform="matrix(0.59459459,0,0,0.59459459,635.82432,11.83602)"/><path id="path7351" d="m 65,247.36218 a 5,5 0 1 1 -10,0 5,5 0 1 1 10,0 z" transform="matrix(0.59459459,0,0,0.59459459,663.17568,11.83602)" style="fill:#91ff14;fill-opacity:1;stroke:#000;stroke-opacity:1"/><path style="fill:#91ff14;fill-opacity:1;stroke:#000;stroke-opacity:1" id="path7353" d="m 65,247.36218 a 5,5 0 1 1 -10,0 5,5 0 1 1 10,0 z" transform="matrix(0.59459459,0,0,0.59459459,691.71622,11.83602)"/><rect id="rect7355" width="23.784" height="7.928" x="573.986" y="174.97" style="fill:#000;fill-opacity:1;stroke:#000;stroke-width:.5945946;stroke-opacity:1"/><rect style="fill:#000;fill-opacity:1;stroke:#000;stroke-width:.5945946;stroke-opacity:1" id="rect7357" width="23.784" height="7.928" x="601.338" y="174.97"/><rect id="rect7359" width="23.784" height="7.928" x="629.878" y="174.97" style="fill:#000;fill-opacity:1;stroke:#000;stroke-width:.5945946;stroke-opacity:1"/><rect style="fill:#000;fill-opacity:1;stroke:#000;stroke-width:.5945946;stroke-opacity:1" id="rect7361" width="23.784" height="7.928" x="658.419" y="174.97"/><rect id="rect7363" width="23.784" height="7.928" x="686.959" y="174.97" style="fill:#000;fill-opacity:1;stroke:#000;stroke-width:.5945946;stroke-opacity:1"/><rect style="fill:#fe0000;fill-opacity:1;stroke:#000;stroke-width:.5945946;stroke-opacity:1" id="rect7365" width="23.784" height="7.928" x="715.5" y="174.97"/><rect id="rect7367" width="142.703" height="53.514" x="587.068" y="34.051" style="fill:none;stroke:#000;stroke-width:.5945946;stroke-opacity:1"/><path id="path7369" d="m 375,107.36218 c -0.96626,0.96626 -1.5802,-0.35768 -2.69956,0.42611 -1.11937,0.78378 -0.0852,1.81352 -1.32372,2.39102 -1.23846,0.5775 -1.36256,-0.87657 -2.68249,-0.5229 -1.31993,0.35368 -0.70037,1.675 -2.06166,1.79409 -1.36129,0.1191 -0.98059,-1.28973 -2.34188,-1.40883 -1.36129,-0.1191 -1.23101,1.33444 -2.55094,0.98077 -1.31993,-0.35368 -0.48034,-1.54734 -1.7188,-2.12484 -1.23847,-0.57751 -1.61318,0.83293 -2.73255,0.0491 -1.11936,-0.78379 0.0779,-1.6183 -0.8884,-2.58456 -0.96626,-0.96625 -1.80077,0.23096 -2.58456,-0.8884 -0.78379,-1.11937 0.62665,-1.49408 0.0491,-2.73254 -0.5775,-1.23847 -1.77116,-0.39887 -2.12483,-1.7188 -0.35368,-1.319934 1.09986,-1.189653 0.98076,-2.550946 -0.1191,-1.361293 -1.52793,-0.980587 -1.40883,-2.34188 0.1191,-1.361292 1.44042,-0.74173 1.79409,-2.06166 0.35368,-1.319931 -1.1004,-1.444033 -0.5229,-2.682496 0.57751,-1.238463 1.60724,-0.204347 2.39103,-1.323712 0.78378,-1.119365 -0.54016,-1.733307 0.4261,-2.699563 0.96626,-0.966257 1.5802,0.357684 2.69956,-0.426104 1.11937,-0.783788 0.0852,-1.813519 1.32372,-2.391024 1.23846,-0.577505 1.36256,0.876573 2.68249,0.522899 1.31993,-0.353675 0.70037,-1.674994 2.06166,-1.794092 1.36129,-0.119098 0.98059,1.289734 2.34188,1.408832 1.36129,0.119097 1.23101,-1.33444 2.55094,-0.980765 1.31993,0.353674 0.48034,1.547334 1.7188,2.124838 1.23847,0.577505 1.61318,-0.832932 2.73255,-0.04914 1.11936,0.783788 -0.0779,1.618303 0.8884,2.584559 0.96626,0.966257 1.80077,-0.23096 2.58456,0.888405 0.78379,1.119365 -0.62665,1.49408 -0.0491,2.732543 0.5775,1.238463 1.77116,0.398868 2.12483,1.718799 0.35368,1.31993 -1.09986,1.189649 -0.98076,2.550942 0.1191,1.361293 1.52793,0.980587 1.40883,2.34188 -0.1191,1.361293 -1.44042,0.74173 -1.79409,2.061659 -0.35368,1.31993 1.1004,1.44403 0.5229,2.6825 -0.57751,1.23846 -1.60724,0.20434 -2.39103,1.32371 -0.78378,1.11936 0.54016,1.73331 -0.4261,2.69956 z" transform="matrix(0.6943065,0,0,0.6943065,503.10516,-0.84511953)" style="fill:none;stroke:#000;stroke-width:.99921262;stroke-miterlimit:4;stroke-opacity:1;stroke-dasharray:none"/><path style="fill:none;stroke:#000;stroke-width:.99921262;stroke-miterlimit:4;stroke-opacity:1;stroke-dasharray:none" id="path7371" d="m 375,107.36218 c -0.96626,0.96626 -1.5802,-0.35768 -2.69956,0.42611 -1.11937,0.78378 -0.0852,1.81352 -1.32372,2.39102 -1.23846,0.5775 -1.36256,-0.87657 -2.68249,-0.5229 -1.31993,0.35368 -0.70037,1.675 -2.06166,1.79409 -1.36129,0.1191 -0.98059,-1.28973 -2.34188,-1.40883 -1.36129,-0.1191 -1.23101,1.33444 -2.55094,0.98077 -1.31993,-0.35368 -0.48034,-1.54734 -1.7188,-2.12484 -1.23847,-0.57751 -1.61318,0.83293 -2.73255,0.0491 -1.11936,-0.78379 0.0779,-1.6183 -0.8884,-2.58456 -0.96626,-0.96625 -1.80077,0.23096 -2.58456,-0.8884 -0.78379,-1.11937 0.62665,-1.49408 0.0491,-2.73254 -0.5775,-1.23847 -1.77116,-0.39887 -2.12483,-1.7188 -0.35368,-1.319934 1.09986,-1.189653 0.98076,-2.550946 -0.1191,-1.361293 -1.52793,-0.980587 -1.40883,-2.34188 0.1191,-1.361292 1.44042,-0.74173 1.79409,-2.06166 0.35368,-1.319931 -1.1004,-1.444033 -0.5229,-2.682496 0.57751,-1.238463 1.60724,-0.204347 2.39103,-1.323712 0.78378,-1.119365 -0.54016,-1.733307 0.4261,-2.699563 0.96626,-0.966257 1.5802,0.357684 2.69956,-0.426104 1.11937,-0.783788 0.0852,-1.813519 1.32372,-2.391024 1.23846,-0.577505 1.36256,0.876573 2.68249,0.522899 1.31993,-0.353675 0.70037,-1.674994 2.06166,-1.794092 1.36129,-0.119098 0.98059,1.289734 2.34188,1.408832 1.36129,0.119097 1.23101,-1.33444 2.55094,-0.980765 1.31993,0.353674 0.48034,1.547334 1.7188,2.124838 1.23847,0.577505 1.61318,-0.832932 2.73255,-0.04914 1.11936,0.783788 -0.0779,1.618303 0.8884,2.584559 0.96626,0.966257 1.80077,-0.23096 2.58456,0.888405 0.78379,1.119365 -0.62665,1.49408 -0.0491,2.732543 0.5775,1.238463 1.77116,0.398868 2.12483,1.718799 0.35368,1.31993 -1.09986,1.189649 -0.98076,2.550942 0.1191,1.361293 1.52793,0.980587 1.40883,2.34188 -0.1191,1.361293 -1.44042,0.74173 -1.79409,2.061659 -0.35368,1.31993 1.1004,1.44403 0.5229,2.6825 -0.57751,1.23846 -1.60724,0.20434 -2.39103,1.32371 -0.78378,1.11936 0.54016,1.73331 -0.4261,2.69956 z" transform="matrix(0.6943065,0,0,0.6943065,323.01339,50.089682)"/><path id="path7373" d="m 375,107.36218 c -0.96626,0.96626 -1.5802,-0.35768 -2.69956,0.42611 -1.11937,0.78378 -0.0852,1.81352 -1.32372,2.39102 -1.23846,0.5775 -1.36256,-0.87657 -2.68249,-0.5229 -1.31993,0.35368 -0.70037,1.675 -2.06166,1.79409 -1.36129,0.1191 -0.98059,-1.28973 -2.34188,-1.40883 -1.36129,-0.1191 -1.23101,1.33444 -2.55094,0.98077 -1.31993,-0.35368 -0.48034,-1.54734 -1.7188,-2.12484 -1.23847,-0.57751 -1.61318,0.83293 -2.73255,0.0491 -1.11936,-0.78379 0.0779,-1.6183 -0.8884,-2.58456 -0.96626,-0.96625 -1.80077,0.23096 -2.58456,-0.8884 -0.78379,-1.11937 0.62665,-1.49408 0.0491,-2.73254 -0.5775,-1.23847 -1.77116,-0.39887 -2.12483,-1.7188 -0.35368,-1.319934 1.09986,-1.189653 0.98076,-2.550946 -0.1191,-1.361293 -1.52793,-0.980587 -1.40883,-2.34188 0.1191,-1.361292 1.44042,-0.74173 1.79409,-2.06166 0.35368,-1.319931 -1.1004,-1.444033 -0.5229,-2.682496 0.57751,-1.238463 1.60724,-0.204347 2.39103,-1.323712 0.78378,-1.119365 -0.54016,-1.733307 0.4261,-2.699563 0.96626,-0.966257 1.5802,0.357684 2.69956,-0.426104 1.11937,-0.783788 0.0852,-1.813519 1.32372,-2.391024 1.23846,-0.577505 1.36256,0.876573 2.68249,0.522899 1.31993,-0.353675 0.70037,-1.674994 2.06166,-1.794092 1.36129,-0.119098 0.98059,1.289734 2.34188,1.408832 1.36129,0.119097 1.23101,-1.33444 2.55094,-0.980765 1.31993,0.353674 0.48034,1.547334 1.7188,2.124838 1.23847,0.577505 1.61318,-0.832932 2.73255,-0.04914 1.11936,0.783788 -0.0779,1.618303 0.8884,2.584559 0.96626,0.966257 1.80077,-0.23096 2.58456,0.888405 0.78379,1.119365 -0.62665,1.49408 -0.0491,2.732543 0.5775,1.238463 1.77116,0.398868 2.12483,1.718799 0.35368,1.31993 -1.09986,1.189649 -0.98076,2.550942 0.1191,1.361293 1.52793,0.980587 1.40883,2.34188 -0.1191,1.361293 -1.44042,0.74173 -1.79409,2.061659 -0.35368,1.31993 1.1004,1.44403 0.5229,2.6825 -0.57751,1.23846 -1.60724,0.20434 -2.39103,1.32371 -0.78378,1.11936 0.54016,1.73331 -0.4261,2.69956 z" transform="matrix(0.6943065,0,0,0.6943065,375.33771,50.089682)" style="fill:none;stroke:#000;stroke-width:.99921262;stroke-miterlimit:4;stroke-opacity:1;stroke-dasharray:none"/><path style="fill:none;stroke:#000;stroke-width:.99921262;stroke-miterlimit:4;stroke-opacity:1;stroke-dasharray:none" id="path7375" d="m 375,107.36218 c -0.96626,0.96626 -1.5802,-0.35768 -2.69956,0.42611 -1.11937,0.78378 -0.0852,1.81352 -1.32372,2.39102 -1.23846,0.5775 -1.36256,-0.87657 -2.68249,-0.5229 -1.31993,0.35368 -0.70037,1.675 -2.06166,1.79409 -1.36129,0.1191 -0.98059,-1.28973 -2.34188,-1.40883 -1.36129,-0.1191 -1.23101,1.33444 -2.55094,0.98077 -1.31993,-0.35368 -0.48034,-1.54734 -1.7188,-2.12484 -1.23847,-0.57751 -1.61318,0.83293 -2.73255,0.0491 -1.11936,-0.78379 0.0779,-1.6183 -0.8884,-2.58456 -0.96626,-0.96625 -1.80077,0.23096 -2.58456,-0.8884 -0.78379,-1.11937 0.62665,-1.49408 0.0491,-2.73254 -0.5775,-1.23847 -1.77116,-0.39887 -2.12483,-1.7188 -0.35368,-1.319934 1.09986,-1.189653 0.98076,-2.550946 -0.1191,-1.361293 -1.52793,-0.980587 -1.40883,-2.34188 0.1191,-1.361292 1.44042,-0.74173 1.79409,-2.06166 0.35368,-1.319931 -1.1004,-1.444033 -0.5229,-2.682496 0.57751,-1.238463 1.60724,-0.204347 2.39103,-1.323712 0.78378,-1.119365 -0.54016,-1.733307 0.4261,-2.699563 0.96626,-0.966257 1.5802,0.357684 2.69956,-0.426104 1.11937,-0.783788 0.0852,-1.813519 1.32372,-2.391024 1.23846,-0.577505 1.36256,0.876573 2.68249,0.522899 1.31993,-0.353675 0.70037,-1.674994 2.06166,-1.794092 1.36129,-0.119098 0.98059,1.289734 2.34188,1.408832 1.36129,0.119097 1.23101,-1.33444 2.55094,-0.980765 1.31993,0.353674 0.48034,1.547334 1.7188,2.124838 1.23847,0.577505 1.61318,-0.832932 2.73255,-0.04914 1.11936,0.783788 -0.0779,1.618303 0.8884,2.584559 0.96626,0.966257 1.80077,-0.23096 2.58456,0.888405 0.78379,1.119365 -0.62665,1.49408 -0.0491,2.732543 0.5775,1.238463 1.77116,0.398868 2.12483,1.718799 0.35368,1.31993 -1.09986,1.189649 -0.98076,2.550942 0.1191,1.361293 1.52793,0.980587 1.40883,2.34188 -0.1191,1.361293 -1.44042,0.74173 -1.79409,2.061659 -0.35368,1.31993 1.1004,1.44403 0.5229,2.6825 -0.57751,1.23846 -1.60724,0.20434 -2.39103,1.32371 -0.78378,1.11936 0.54016,1.73331 -0.4261,2.69956 z" transform="matrix(0.6943065,0,0,0.6943065,428.85123,50.089682)"/><path id="path7377" d="m 375,107.36218 c -0.96626,0.96626 -1.5802,-0.35768 -2.69956,0.42611 -1.11937,0.78378 -0.0852,1.81352 -1.32372,2.39102 -1.23846,0.5775 -1.36256,-0.87657 -2.68249,-0.5229 -1.31993,0.35368 -0.70037,1.675 -2.06166,1.79409 -1.36129,0.1191 -0.98059,-1.28973 -2.34188,-1.40883 -1.36129,-0.1191 -1.23101,1.33444 -2.55094,0.98077 -1.31993,-0.35368 -0.48034,-1.54734 -1.7188,-2.12484 -1.23847,-0.57751 -1.61318,0.83293 -2.73255,0.0491 -1.11936,-0.78379 0.0779,-1.6183 -0.8884,-2.58456 -0.96626,-0.96625 -1.80077,0.23096 -2.58456,-0.8884 -0.78379,-1.11937 0.62665,-1.49408 0.0491,-2.73254 -0.5775,-1.23847 -1.77116,-0.39887 -2.12483,-1.7188 -0.35368,-1.319934 1.09986,-1.189653 0.98076,-2.550946 -0.1191,-1.361293 -1.52793,-0.980587 -1.40883,-2.34188 0.1191,-1.361292 1.44042,-0.74173 1.79409,-2.06166 0.35368,-1.319931 -1.1004,-1.444033 -0.5229,-2.682496 0.57751,-1.238463 1.60724,-0.204347 2.39103,-1.323712 0.78378,-1.119365 -0.54016,-1.733307 0.4261,-2.699563 0.96626,-0.966257 1.5802,0.357684 2.69956,-0.426104 1.11937,-0.783788 0.0852,-1.813519 1.32372,-2.391024 1.23846,-0.577505 1.36256,0.876573 2.68249,0.522899 1.31993,-0.353675 0.70037,-1.674994 2.06166,-1.794092 1.36129,-0.119098 0.98059,1.289734 2.34188,1.408832 1.36129,0.119097 1.23101,-1.33444 2.55094,-0.980765 1.31993,0.353674 0.48034,1.547334 1.7188,2.124838 1.23847,0.577505 1.61318,-0.832932 2.73255,-0.04914 1.11936,0.783788 -0.0779,1.618303 0.8884,2.584559 0.96626,0.966257 1.80077,-0.23096 2.58456,0.888405 0.78379,1.119365 -0.62665,1.49408 -0.0491,2.732543 0.5775,1.238463 1.77116,0.398868 2.12483,1.718799 0.35368,1.31993 -1.09986,1.189649 -0.98076,2.550942 0.1191,1.361293 1.52793,0.980587 1.40883,2.34188 -0.1191,1.361293 -1.44042,0.74173 -1.79409,2.061659 -0.35368,1.31993 1.1004,1.44403 0.5229,2.6825 -0.57751,1.23846 -1.60724,0.20434 -2.39103,1.32371 -0.78378,1.11936 0.54016,1.73331 -0.4261,2.69956 z" transform="matrix(0.6943065,0,0,0.6943065,484.74312,50.089682)" style="fill:none;stroke:#000;stroke-width:.99921262;stroke-miterlimit:4;stroke-opacity:1;stroke-dasharray:none"/><rect id="rect7379" width="130.811" height="35.676" x="593.014" y="42.97" style="fill:#000;fill-opacity:1;stroke:#000;stroke-width:.5945946;stroke-opacity:1"/><text id="text7381" x="597.77" y="56.562" xml:space="preserve" style="font-size:12.59668827px;font-style:normal;font-weight:400;fill:red;fill-opacity:1;stroke:none;font-family:Bitstream Vera Sans"><tspan style="font-size:12.59668827px;font-style:normal;font-variant:normal;font-weight:400;font-stretch:normal;text-align:start;line-height:108.00000429%;writing-mode:lr-tb;text-anchor:start;fill:red;fill-opacity:1;font-family:Andale Mono;-inkscape-font-specification:Andale Mono" id="tspan7383" x="597.77" y="56.562">midi</tspan><tspan style="font-size:12.59668827px;font-style:normal;font-variant:normal;font-weight:400;font-stretch:normal;text-align:start;line-height:108.00000429%;writing-mode:lr-tb;text-anchor:start;fill:red;fill-opacity:1;font-family:Andale Mono;-inkscape-font-specification:Andale Mono" id="tspan7385" x="597.77" y="70.166">midi out 1&gt;|</tspan></text><path id="path7387" d="m 385,97.362183 a 20,20 0 1 1 -40,0 20,20 0 1 1 40,0 z" transform="matrix(0.74324324,0,0,0.74324324,485.24324,-5.6097101)" style="fill:none;stroke:#000;stroke-opacity:1;display:inline"/><path style="fill:#2b2b2b;fill-opacity:1;stroke:#000;stroke-opacity:1;display:inline" id="path7389" d="m 385,97.362183 a 20,20 0 1 1 -40,0 20,20 0 1 1 40,0 z" transform="matrix(0.36800872,0,0,0.36800872,622.20385,30.923942)"/><path style="fill:none;stroke:#000;stroke-opacity:1;display:inline" id="path7391" d="m 385,97.362183 a 20,20 0 1 1 -40,0 20,20 0 1 1 40,0 z" transform="matrix(0.74324324,0,0,0.74324324,305.15147,45.325091)"/><path id="path7393" d="m 385,97.362183 a 20,20 0 1 1 -40,0 20,20 0 1 1 40,0 z" transform="matrix(0.36800872,0,0,0.36800872,442.11207,81.858738)" style="fill:none;stroke:#000;stroke-opacity:1;display:inline"/><rect id="rect7395" width="8.756" height="2.795" x="566.169" y="116.356" style="fill:#000;fill-opacity:1;stroke:#000;stroke-width:.50200361;stroke-miterlimit:4;stroke-opacity:1;stroke-dasharray:none;display:inline"/><path id="path7397" d="m 386.71329,179.98456 a 4.1958041,4.1958041 0 1 1 -8.39161,0 4.1958041,4.1958041 0 1 1 8.39161,0 z" transform="matrix(0.59459459,0,0,0.59459459,348.89107,10.632045)" style="fill:#000;fill-opacity:1;stroke:none;display:inline"/><path id="path7399" d="m 385,97.362183 a 20,20 0 1 1 -40,0 20,20 0 1 1 40,0 z" transform="matrix(0.74324324,0,0,0.74324324,357.47579,45.325091)" style="fill:none;stroke:#000;stroke-opacity:1;display:inline"/><path style="fill:none;stroke:#000;stroke-opacity:1;display:inline" id="path7401" d="m 385,97.362183 a 20,20 0 1 1 -40,0 20,20 0 1 1 40,0 z" transform="matrix(0.36800872,0,0,0.36800872,494.43639,81.858738)"/><rect style="fill:#000;fill-opacity:1;stroke:#000;stroke-width:.50200361;stroke-miterlimit:4;stroke-opacity:1;stroke-dasharray:none;display:inline" id="rect7403" width="8.756" height="2.795" x="618.493" y="116.356"/><path style="fill:#000;fill-opacity:1;stroke:none;display:inline" id="path7405" d="m 386.71329,179.98456 a 4.1958041,4.1958041 0 1 1 -8.39161,0 4.1958041,4.1958041 0 1 1 8.39161,0 z" transform="matrix(0.59459459,0,0,0.59459459,401.2154,10.632045)"/><path style="fill:none;stroke:#000;stroke-opacity:1;display:inline" id="path7407" d="m 385,97.362183 a 20,20 0 1 1 -40,0 20,20 0 1 1 40,0 z" transform="matrix(0.74324324,0,0,0.74324324,410.98931,45.325091)"/><path id="path7409" d="m 385,97.362183 a 20,20 0 1 1 -40,0 20,20 0 1 1 40,0 z" transform="matrix(0.36800872,0,0,0.36800872,547.9499,81.858738)" style="fill:none;stroke:#000;stroke-opacity:1;display:inline"/><rect id="rect7411" width="8.756" height="2.795" x="672.007" y="116.356" style="fill:#000;fill-opacity:1;stroke:#000;stroke-width:.50200361;stroke-miterlimit:4;stroke-opacity:1;stroke-dasharray:none;display:inline"/><path id="path7413" d="m 386.71329,179.98456 a 4.1958041,4.1958041 0 1 1 -8.39161,0 4.1958041,4.1958041 0 1 1 8.39161,0 z" transform="matrix(0.59459459,0,0,0.59459459,454.72891,10.632045)" style="fill:#000;fill-opacity:1;stroke:none;display:inline"/><path id="path7415" d="m 385,97.362183 a 20,20 0 1 1 -40,0 20,20 0 1 1 40,0 z" transform="matrix(0.74324324,0,0,0.74324324,466.8812,45.325091)" style="fill:none;stroke:#000;stroke-opacity:1;display:inline"/><path style="fill:none;stroke:#000;stroke-opacity:1;display:inline" id="path7417" d="m 385,97.362183 a 20,20 0 1 1 -40,0 20,20 0 1 1 40,0 z" transform="matrix(0.36800872,0,0,0.36800872,603.8418,81.858738)"/><rect style="fill:#000;fill-opacity:1;stroke:#000;stroke-width:.50200361;stroke-miterlimit:4;stroke-opacity:1;stroke-dasharray:none;display:inline" id="rect7419" width="8.756" height="2.795" x="727.899" y="116.356"/><path style="fill:#000;fill-opacity:1;stroke:none;display:inline" id="path7421" d="m 386.71329,179.98456 a 4.1958041,4.1958041 0 1 1 -8.39161,0 4.1958041,4.1958041 0 1 1 8.39161,0 z" transform="matrix(0.59459459,0,0,0.59459459,510.6208,10.632045)"/><path style="fill:none;stroke:#000;stroke-width:3.61812449;stroke-linecap:butt;stroke-linejoin:round;stroke-miterlimit:4;stroke-opacity:1;stroke-dasharray:none" id="path7423" d="m 181,22.362183 0,-55 285,0 0,55"/><path id="path7937" d="m 437,22.362183 0,-40 285,0 0,40" style="fill:none;stroke:#000;stroke-width:3.61812449;stroke-linecap:butt;stroke-linejoin:round;stroke-miterlimit:4;stroke-opacity:1;stroke-dasharray:none"/><text style="font-size:40px;font-style:normal;font-weight:400;fill:#000;fill-opacity:1;stroke:none;font-family:Bitstream Vera Sans" id="text7939" x="143" y="18.862" xml:space="preserve"><tspan id="tspan7941" x="143" y="18.862" style="font-size:20px">out</tspan></text><text id="text7943" x="399" y="18.862" xml:space="preserve" style="font-size:40px;font-style:normal;font-weight:400;fill:#000;fill-opacity:1;stroke:none;font-family:Bitstream Vera Sans"><tspan style="font-size:20px" id="tspan7945" x="399" y="18.862">out</tspan></text><text style="font-size:40px;font-style:normal;font-weight:400;fill:#000;fill-opacity:1;stroke:none;font-family:Bitstream Vera Sans" id="text7947" x="471" y="18.862" xml:space="preserve"><tspan id="tspan7949" x="471" y="18.862" style="font-size:20px">in</tspan></text><text id="text7955" x="727" y="18.862" xml:space="preserve" style="font-size:40px;font-style:normal;font-weight:400;fill:#000;fill-opacity:1;stroke:none;font-family:Bitstream Vera Sans"><tspan style="font-size:20px" id="tspan7957" x="727" y="18.862">in</tspan></text><path style="fill:none;stroke:#000;stroke-width:3.61771654;stroke-linecap:butt;stroke-linejoin:miter;stroke-opacity:1;stroke-miterlimit:4;stroke-dasharray:none" id="path7959" d="m 200,22.362183 0,-85 -55,0"/><text id="text7961" x="205" y="18.862" xml:space="preserve" style="font-size:40px;font-style:normal;font-weight:400;fill:#000;fill-opacity:1;stroke:none;font-family:Bitstream Vera Sans"><tspan style="font-size:20px" id="tspan7963" x="205" y="18.862">in</tspan></text><text style="font-size:40px;font-style:normal;font-weight:400;fill:#000;fill-opacity:1;stroke:none;font-family:Bitstream Vera Sans" id="text7965" x="7" y="-57.138" xml:space="preserve"><tspan id="tspan7967" x="7" y="-57.138" style="font-size:16px">master keyboard</tspan></text></g></svg>